<svg version="1.2" xmlns="http://www.w3.org/2000/svg" viewBox="0 0 45 45" width="45" height="45"><defs><clipPath clipPathUnits="userSpaceOnUse" id="cp1"><path fill="" d="m-1232-373h1920v5924h-1920z"/></clipPath><clipPath clipPathUnits="userSpaceOnUse" id="cp2"><path d="m-252.93-80h550.93v550.93h-550.93z"/></clipPath></defs><style>.a{fill:#FFFF00}</style><g clip-path="url(#cp1)"><g clip-path="url(#cp2)"><path class="a" d="m22.6 42c-6.3 0-11.4 0.7-11.4 1.4 0 0.8 5.1 1.5 11.4 1.5 6.3 0 11.4-0.7 11.4-1.5 0-0.7-5.1-1.4-11.4-1.4z"/><path fill-rule="evenodd" class="a" d="m44.9 17c0 1.6-1.3 2.8-2.9 2.8q-0.4 0-0.7-0.1c-1.2 1.7-4.4 7.3-7.2 22.3 0 0-0.7-0.3-2.5-0.6-1.8-0.3-4.7-0.6-9.1-0.6-8.8 0-11.5 1.2-11.5 1.2-2.8-15-6-20.6-7.2-22.3q-0.4 0.1-0.8 0.1c-1.5 0-2.8-1.2-2.8-2.8 0-1.6 1.3-2.9 2.8-2.9 1.6 0 2.9 1.3 2.9 2.9 0 0.7-0.3 1.4-0.8 1.9l7 8.2-0.5-15.2c-1.6-0.1-2.9-1.3-2.9-2.9 0-1.6 1.3-2.8 2.9-2.8 1.6 0 2.8 1.2 2.8 2.8 0 1.1-0.6 2.1-1.5 2.5l5.4 12 3.3-17.5c-1.1-0.4-1.9-1.5-1.9-2.7 0-1.6 1.3-2.9 2.8-2.9 1.6 0 2.9 1.3 2.9 2.9 0 1.2-0.8 2.3-1.9 2.7l3.3 17.5 5.4-12c-0.9-0.4-1.6-1.4-1.6-2.5 0-1.6 1.3-2.8 2.9-2.8 1.6 0 2.8 1.2 2.8 2.8 0 1.6-1.2 2.8-2.8 2.9l-0.5 15.2 7-8.2c-0.5-0.5-0.8-1.2-0.8-1.9 0-1.6 1.3-2.9 2.8-2.9 1.6 0 2.9 1.3 2.9 2.9zm-31.5 22.5q-0.2-2-0.6-3.9c-0.3-1.3-0.7-2.6-1.2-3.9q-0.6-1.8-1.6-3.6c-0.6-1.2-1.3-2.3-2.2-3.4 0.7 1.2 1.2 2.4 1.7 3.6q0.8 1.8 1.5 3.7 0.7 1.8 1.3 3.7zm4.2-0.8c0-1.3-0.1-2.6-0.3-3.9q-0.3-2-0.6-4c-0.5-2.5-1.1-5.1-1.9-7.6 0.3 2.6 0.7 5.2 1.2 7.8q0.3 1.9 0.8 3.8zm5.2-9c-0.1-2.7-0.1-5.4-0.4-8.1q0-0.1 0-0.3c-0.3 2.8-0.3 5.6-0.3 8.4 0 2.8 0 5.6 0.3 8.5q0-0.2 0-0.5c0.3-2.6 0.3-5.3 0.4-8zm7.3-6.5c-0.8 2.5-1.4 5.1-1.9 7.7q-0.3 1.9-0.6 3.9c-0.2 1.3-0.3 2.6-0.3 3.9l0.9-3.8q0.4-2 0.7-3.9c0.5-2.6 1-5.2 1.2-7.8zm7 1.6c-0.8 1-1.5 2.1-2.1 3.3q-1 1.8-1.7 3.7c-0.4 1.2-0.8 2.5-1.1 3.8-0.3 1.3-0.5 2.6-0.6 4l1.1-3.8q0.6-1.9 1.3-3.8 0.7-1.8 1.4-3.7c0.6-1.2 1.1-2.4 1.7-3.5z"/></g></g></svg>
