<svg xmlns="http://www.w3.org/2000/svg" version="1.2" viewBox="0 0 552 552" width="552" height="552"><defs><clipPath clipPathUnits="userSpaceOnUse" id="cp1"><path d="m-977-292h1920v5924h-1920z"/></clipPath><clipPath clipPathUnits="userSpaceOnUse" id="cp2"><path d="m356.86 258.05l36.23 68.03q12.42 23.44 21.35 31.13 8.62 7.42 22.3 9.62v-1.82q-14.37-2.1-23.3-9.8-8.93-7.69-21.35-31.13l-35.18-66.04q-0.03 0-0.05 0.01z"/></clipPath><linearGradient id="P" gradientUnits="userSpaceOnUse"/><linearGradient id="g1" x2="1" href="#P" gradientTransform="matrix(1,0,0,1.362,2.071,551.929)"><stop stop-color="#e3e4e5"/><stop offset="1" stop-color="#9a9da0"/></linearGradient><clipPath clipPathUnits="userSpaceOnUse" id="cp3"><path d="m322.9 131.47c13.39 0 26.78 2.47 38.88 8.37 8.6 4.2 16.35 10.44 22.52 20.29q9.25 14.78 9.25 35.24 0 21.86-10.55 37.95-10.55 16.09-32.68 22.73l36.24 68.03q12.42 23.44 21.35 31.13 8.93 7.7 23.29 9.8v6.47h-46.84l-59.4-110.88q-6.6 0.35-10.74 0.35-1.68 0-3.62-0.09-1.95-0.08-4.02-0.26v68.91q0.01 22.38 3.63 27.8 4.92 7.7 14.75 7.7h6.86v6.47h-47.96v-231.08c0-1.53 1.07-2.86 2.56-3.2 9.95-2.25 19.87-4.97 30.09-5.55q3.19-0.18 6.39-0.18zm-9.07 118.29q25.11 0 37.85-14.69 12.75-14.69 12.75-37.43c0-15.14-4.99-30.97-14.73-42.68-4.97-5.99-11.3-11.22-19.05-12.93-4.1-0.91-8.35-0.88-12.51-0.4-1.2 0.14-11.54 1.59-11.55 2.32-0.01 0.09-0.01 105.63-0.01 105.63q2.46 0 4.28 0.09 1.81 0.09 2.97 0.09z"/></clipPath><linearGradient id="g2" x2="1" href="#P" gradientTransform="matrix(1,0,0,1.629,2.071,551.928)"><stop stop-color="#caccce"/><stop offset="1" stop-color="#696b6e"/></linearGradient><clipPath clipPathUnits="userSpaceOnUse" id="cp4"><path d="m232.17 131.47q3.2 0 6.39 0.18c10.22 0.58 20.14 3.3 30.09 5.55 1.49 0.34 2.56 1.67 2.56 3.2v231.08h-47.96v-6.47h6.86q9.84 0 14.75-7.7 3.63-5.42 3.63-27.8v-68.91q-2.07 0.18-4.02 0.26-1.94 0.09-3.62 0.09-4.14 0-10.74-0.35l-59.4 110.88h-46.85v-6.47q14.37-2.1 23.3-9.8 8.93-7.69 21.35-31.13l36.24-68.03q-22.13-6.64-32.68-22.73-10.55-16.09-10.55-37.95 0-20.46 9.26-35.24c6.16-9.85 13.91-16.09 22.51-20.29 12.1-5.9 25.49-8.37 38.88-8.37zm9.07 118.29q1.16 0 2.97-0.09 1.82-0.09 4.28-0.09c0 0 0-105.54 0-105.63-0.01-0.73-10.36-2.18-11.56-2.32-4.16-0.48-8.41-0.51-12.51 0.4-7.74 1.71-14.08 6.94-19.05 12.93-9.74 11.71-14.73 27.54-14.73 42.68q0 22.74 12.75 37.43 12.74 14.69 37.85 14.69z"/></clipPath><linearGradient id="g3" x2="1" href="#P" gradientTransform="matrix(1,0,0,1.629,2.071,551.928)"><stop stop-color="#caccce"/><stop offset="1" stop-color="#696b6e"/></linearGradient><clipPath clipPathUnits="userSpaceOnUse" id="cp5"><path d="m2.07 1h550.93v550.93h-550.93z"/></clipPath></defs><style>.a{fill:url(#g1)}.b{fill:url(#g2)}.c{fill:url(#g3)}.d{fill:#fff}.e{fill:#96999c}.f{fill:#1a1818}</style><g clip-path="url(#cp1)"><g clip-path="url(#cp2)"><path class="a" d="m356.9 258h79.8v108.8h-79.8z"/></g><g clip-path="url(#cp3)"><path class="b" d="m283.9 131.5h147.3v240h-147.3z"/></g><g clip-path="url(#cp4)"><path class="c" d="m123.9 131.5h147.3v240h-147.3z"/></g><g clip-path="url(#cp5)"><path class="d" d="m551 276.5c0 152.1-123.3 275.4-275.5 275.4-152.1 0-275.4-123.3-275.4-275.4 0-152.2 123.3-275.5 275.4-275.5 152.2 0 275.5 123.3 275.5 275.5z"/><path class="e" d="m277.6 123c-6.3 0-11.4 0.7-11.4 1.4 0 0.8 5.1 1.5 11.4 1.5 6.3 0 11.4-0.7 11.4-1.5 0-0.7-5.1-1.4-11.4-1.4z"/><path fill-rule="evenodd" class="e" d="m299.9 98c0 1.6-1.3 2.8-2.9 2.8q-0.4 0-0.7-0.1c-1.2 1.7-4.4 7.3-7.2 22.3 0 0-0.7-0.3-2.5-0.6-1.8-0.3-4.7-0.6-9.1-0.6-8.8 0-11.5 1.2-11.5 1.2-2.8-15-6-20.6-7.2-22.3q-0.4 0.1-0.8 0.1c-1.5 0-2.8-1.2-2.8-2.8 0-1.6 1.3-2.9 2.8-2.9 1.6 0 2.9 1.3 2.9 2.9 0 0.7-0.3 1.4-0.8 1.9l7 8.2-0.5-15.2c-1.6-0.1-2.9-1.3-2.9-2.9 0-1.6 1.3-2.8 2.9-2.8 1.6 0 2.8 1.2 2.8 2.8 0 1.1-0.6 2.1-1.5 2.5l5.4 12 3.3-17.5c-1.1-0.4-1.9-1.5-1.9-2.7 0-1.6 1.3-2.9 2.8-2.9 1.6 0 2.9 1.3 2.9 2.9 0 1.2-0.8 2.3-1.9 2.7l3.3 17.5 5.4-12c-0.9-0.4-1.6-1.4-1.6-2.5 0-1.6 1.3-2.8 2.9-2.8 1.6 0 2.8 1.2 2.8 2.8 0 1.6-1.2 2.8-2.8 2.9l-0.5 15.2 7-8.2c-0.5-0.5-0.8-1.2-0.8-1.9 0-1.6 1.3-2.9 2.8-2.9 1.6 0 2.9 1.3 2.9 2.9zm-31.5 22.5q-0.2-2-0.6-3.9c-0.3-1.3-0.7-2.6-1.2-3.9q-0.6-1.8-1.6-3.6c-0.6-1.2-1.3-2.3-2.2-3.4 0.7 1.2 1.2 2.4 1.7 3.6q0.8 1.8 1.5 3.7 0.7 1.8 1.3 3.7zm4.2-0.8c0-1.3-0.1-2.6-0.3-3.9q-0.3-2-0.6-4c-0.5-2.5-1.1-5.1-1.9-7.6 0.3 2.6 0.7 5.2 1.2 7.8q0.3 1.9 0.8 3.8zm5.2-9c-0.1-2.7-0.1-5.4-0.4-8.1q0-0.1 0-0.3c-0.3 2.8-0.3 5.6-0.3 8.4 0 2.8 0 5.6 0.3 8.5q0-0.2 0-0.5c0.3-2.6 0.3-5.3 0.4-8zm7.3-6.5c-0.8 2.5-1.4 5.1-1.9 7.7q-0.3 1.9-0.6 3.9c-0.2 1.3-0.3 2.6-0.3 3.9l0.9-3.8q0.4-2 0.7-3.9c0.5-2.6 1-5.2 1.2-7.8zm7 1.6c-0.8 1-1.5 2.1-2.1 3.3q-1 1.8-1.7 3.7c-0.4 1.2-0.8 2.5-1.1 3.8-0.3 1.3-0.5 2.6-0.6 4l1.1-3.8q0.6-1.9 1.3-3.8 0.7-1.8 1.4-3.7c0.6-1.2 1.1-2.4 1.7-3.5z"/><path fill-rule="evenodd" class="e" d="m431.2 365v6.5h-46.8l-59.4-110.9q-6.6 0.4-10.8 0.4-1.7 0-3.6-0.1-1.9-0.1-4-0.3v68.9q0 22.4 3.6 27.8 4.9 7.7 14.8 7.7h6.8v6.5h-47.9v-231.1c0-1.5 1-2.9 2.5-3.2 10-2.3 19.9-5 30.1-5.5 15.5-0.9 31.3 1.3 45.3 8.1 8.6 4.2 16.3 10.5 22.5 20.3q9.2 14.8 9.2 35.3 0 21.8-10.5 37.9-10.5 16.1-32.7 22.8l36.3 68q12.4 23.4 21.3 31.1 8.9 7.7 23.3 9.8zm-79.5-129.9q12.7-14.7 12.7-37.5c0-15.1-5-30.9-14.7-42.6-5-6-11.3-11.3-19-13-4.2-0.9-8.4-0.9-12.6-0.4-1.2 0.2-11.5 1.6-11.5 2.3 0 0.1 0 105.7 0 105.7q2.4 0 4.3 0.1 1.8 0.1 2.9 0.1 25.1 0 37.9-14.7z"/><path fill-rule="evenodd" class="e" d="m147.2 355.2q8.9-7.7 21.3-31.1l36.2-68q-22.1-6.7-32.6-22.8-10.6-16.1-10.6-37.9 0-20.5 9.3-35.3c6.1-9.8 13.9-16.1 22.5-20.3 14-6.8 29.8-9 45.3-8.1 10.2 0.5 20.1 3.2 30 5.5 1.5 0.3 2.6 1.7 2.6 3.2v231.1h-47.9v-6.5h6.8q9.8 0 14.8-7.7 3.6-5.4 3.6-27.8v-68.9q-2.1 0.2-4 0.3-2 0.1-3.6 0.1-4.2 0-10.8-0.4l-59.4 110.9h-46.8v-6.5q14.3-2.1 23.3-9.8zm94-105.4q1.2 0 3-0.1 1.8-0.1 4.3-0.1c0 0 0-105.6 0-105.7 0-0.7-10.4-2.1-11.6-2.3-4.1-0.5-8.4-0.5-12.5 0.4-7.7 1.7-14.1 7-19 13-9.8 11.7-14.8 27.5-14.8 42.6q0 22.8 12.8 37.5 12.7 14.7 37.8 14.7z"/><path class="d" d="m474.1 272.8c-2.3-2.3-5.4-3.7-8.7-3.7h-3.4c-6 0-11 4.4-11.9 10.4q-0.5 3.8-1.2 6.5c-0.4 1.7-0.8 2.7-1 3.1-0.3 0.1-0.9 0.2-1.7 0.3q-2 0.2-4.7 0.2v-38.4c5.5-1.1 9.6-6 9.6-11.8v-3.8c0-6.7-5.4-12-12-12h-349.4c-6.6 0-12 5.3-12 12v3.8c0 5.8 4.1 10.7 9.6 11.8v38.7c-5.5 1.1-9.6 5.9-9.6 11.7v3.9c0 6.6 5.4 12 12 12h29.1c3.5 0 6.7-1.6 8.9-4q2.4 1.8 5.3 2.9c3 1.2 6.5 1.7 10.7 1.7q0.9 0 2 0c0.8-0.1 318.6-0.6 318.6-0.6 6.5 0 11.7-5.1 12-11.5l1.1-24.4c0.1-3.2-1.1-6.4-3.3-8.8z"/><path fill-rule="evenodd" class="f" d="m116.2 235.6q7.6 0 12.9 1.1 5.2 1.2 8.4 3.3 3.3 2.1 4.7 5.1 1.4 3 1.4 6.7 0 3.2-1 6-1 2.8-3 5.1-2 2.4-4.9 4-3 1.7-7 2.5v0.2q3.4 0.8 5.5 2.3 2.1 1.5 3.5 3.6 1.3 2.2 2 5 0.8 2.7 1.3 6.1 0.6 3.4 1.1 6.2 0.4 2.8 1.2 4.8 0.8 2.1 2.1 3.2 1.3 1.2 3.7 1.2 0.4 0 1.2-0.1 0.8 0 1.8-0.2v3.7q-0.9 0.2-1.8 0.4-1 0.1-2 0.2-1 0-1.9 0.1-0.9 0-1.7 0-4.1 0-6.5-0.9-2.4-0.9-3.7-2.8-1.2-1.8-1.8-4.7-0.5-2.8-1-6.7-0.7-5.7-1.4-9.5-0.8-3.9-2-6.2-1.3-2.3-3.6-3.3-2.2-1-6-1h-9v30.6h10.1v3.9h-29.1v-3.9h9.6v-62.2h-9.6v-3.8zm-7.5 31.5h6.4q5.2 0 8.7-0.8 3.4-0.9 5.6-2.8 2.1-1.8 3-4.7 0.9-2.8 0.9-6.9 0-3.3-0.7-5.7-0.7-2.4-2.7-3.9-1.9-1.5-5.4-2.2-3.4-0.7-8.9-0.7h-6.9z"/><path class="f" d="m174.9 267.3h6.3q3.2 0 5.4-0.3 2.1-0.2 3.4-1.3 1.4-1.2 2-3.5 0.7-2.4 1-6.8h3.4v28.5h-3.4q-0.2-4.4-0.8-6.9-0.6-2.5-1.9-3.8-1.3-1.3-3.5-1.6-2.2-0.4-5.6-0.4h-6.3v30.4h12.7q3.8 0 6.6-0.3 2.8-0.3 5-1 2.1-0.8 3.6-2.2 1.5-1.4 2.6-3.6 1.1-2.2 1.9-5.4 0.8-3.2 1.4-7.5h3.4l-1 23.9h-55.2v-3.9h9.6v-62.2h-9.6v-3.8h54l1 19.3h-3.4q-0.7-4.8-1.8-7.9-1-3-2.9-4.7-1.9-1.7-5-2.3-3-0.6-7.7-0.6h-15.2z"/><path class="f" d="m240.7 239.4v29.3h6.3q3.2 0 5.4-0.2 2.2-0.3 3.5-1.4 1.3-1.2 2-3.6 0.7-2.4 1-6.9h3.4v29h-3.4q-0.3-4.5-0.9-7-0.5-2.6-1.8-3.9-1.3-1.4-3.5-1.7-2.2-0.3-5.7-0.3h-6.3v28.9h10.1v3.9h-29.1v-3.9h9.6v-62.2h-9.6v-3.8h53.6l1.1 20.2h-3.4q-0.6-5.2-1.7-8.4-1.1-3.2-3-4.9-1.9-1.8-5.1-2.4-3.1-0.7-7.7-0.7z"/><path fill-rule="evenodd" class="f" d="m295 301.6v3.9h-23.5v-3.9h9.2l25-66.7h3.8l23.5 66.7h9.5v3.9h-29.6v-3.9h10l-7.2-20.5h-22.7l-7.6 20.5zm9.6-51.5l-10.1 27.1h19.8l-9.5-27.1z"/><path class="f" d="m363.7 267.3h6.3q3.2 0 5.3-0.3 2.2-0.2 3.5-1.3 1.4-1.2 2-3.5 0.7-2.4 1-6.8h3.4v28.5h-3.4q-0.3-4.4-0.8-6.9-0.6-2.5-1.9-3.8-1.3-1.3-3.5-1.6-2.2-0.4-5.6-0.4h-6.3v30.4h12.7q3.8 0 6.6-0.3 2.8-0.3 4.9-1 2.2-0.8 3.7-2.2 1.5-1.4 2.6-3.6 1.1-2.2 1.9-5.4 0.7-3.2 1.4-7.5h3.4l-1 23.9h-55.2v-3.9h9.6v-62.2h-9.6v-3.8h54l1 19.3h-3.4q-0.7-4.8-1.8-7.9-1-3-2.9-4.7-1.9-1.7-5-2.3-3-0.6-7.7-0.6h-15.2z"/><path class="f" d="m440.8 301.6q3.8 0 6.6-0.3 2.8-0.3 5-1.1 2.1-0.7 3.7-2.2 1.5-1.4 2.6-3.6 1.1-2.3 1.9-5.6 0.8-3.2 1.4-7.7h3.4l-1.1 24.4h-53.8v-3.9h9.6v-62.2h-9.6v-3.8h28.6v3.8h-9.6v62.2z"/><path fill-rule="evenodd" class="f" d="m116.2 235.6q7.6 0 12.9 1.1 5.2 1.2 8.4 3.3 3.3 2.1 4.7 5.1 1.4 3 1.4 6.7 0 3.2-1 6-1 2.8-3 5.1-2 2.4-4.9 4-3 1.7-7 2.5v0.2q3.4 0.8 5.5 2.3 2.1 1.5 3.5 3.6 1.3 2.2 2 5 0.8 2.7 1.3 6.1 0.6 3.4 1.1 6.2 0.4 2.8 1.2 4.8 0.8 2.1 2.1 3.2 1.3 1.2 3.7 1.2 0.4 0 1.2-0.1 0.8 0 1.8-0.2v3.7q-0.9 0.2-1.8 0.4-1 0.1-2 0.2-1 0-1.9 0.1-0.9 0-1.7 0-4.1 0-6.5-0.9-2.4-0.9-3.7-2.8-1.2-1.8-1.8-4.7-0.5-2.8-1-6.7-0.7-5.7-1.4-9.5-0.8-3.9-2-6.2-1.3-2.3-3.6-3.3-2.2-1-6-1h-9v30.6h10.1v3.9h-29.1v-3.9h9.6v-62.2h-9.6v-3.8zm-7.5 31.5h6.4q5.2 0 8.7-0.8 3.4-0.9 5.6-2.8 2.1-1.8 3-4.7 0.9-2.8 0.9-6.9 0-3.3-0.7-5.7-0.7-2.4-2.7-3.9-1.9-1.5-5.4-2.2-3.4-0.7-8.9-0.7h-6.9z"/><path class="f" d="m174.9 265.3h6.3q3.2 0 5.4-0.3 2.1-0.2 3.4-1.3 1.4-1.2 2-3.5 0.7-2.4 1-6.8h3.4v28.5h-3.4q-0.2-4.4-0.8-6.9-0.6-2.5-1.9-3.8-1.3-1.3-3.5-1.6-2.2-0.4-5.6-0.4h-6.3v30.4h12.7q3.8 0 6.6-0.3 2.8-0.3 5-1 2.1-0.8 3.6-2.2 1.5-1.4 2.6-3.6 1.1-2.2 1.9-5.4 0.8-3.2 1.4-7.5h3.4l-1 23.9h-55.2v-3.9h9.6v-62.2h-9.6v-3.8h54l1 19.3h-3.4q-0.7-4.8-1.8-7.9-1-3-2.9-4.7-1.9-1.7-5-2.3-3-0.6-7.7-0.6h-15.2z"/><path class="f" d="m240.7 239.4v29.3h6.3q3.2 0 5.4-0.2 2.2-0.3 3.5-1.4 1.3-1.2 2-3.6 0.7-2.4 1-6.9h3.4v29h-3.4q-0.3-4.5-0.9-7-0.5-2.6-1.8-3.9-1.3-1.4-3.5-1.7-2.2-0.3-5.7-0.3h-6.3v28.9h10.1v3.9h-29.1v-3.9h9.6v-62.2h-9.6v-3.8h53.6l1.1 20.2h-3.4q-0.6-5.2-1.7-8.4-1.1-3.2-3-4.9-1.9-1.8-5.1-2.4-3.1-0.7-7.7-0.7z"/><path fill-rule="evenodd" class="f" d="m295 301.6v3.9h-23.5v-3.9h9.2l25-66.7h3.8l23.5 66.7h9.5v3.9h-29.6v-3.9h10l-7.2-20.5h-22.7l-7.6 20.5zm9.6-51.5l-10.1 27.1h19.8l-9.5-27.1z"/><path class="f" d="m363.7 267.3h6.3q3.2 0 5.3-0.3 2.2-0.2 3.5-1.3 1.4-1.2 2-3.5 0.7-2.4 1-6.8h3.4v28.5h-3.4q-0.3-4.4-0.8-6.9-0.6-2.5-1.9-3.8-1.3-1.3-3.5-1.6-2.2-0.4-5.6-0.4h-6.3v30.4h12.7q3.8 0 6.6-0.3 2.8-0.3 4.9-1 2.2-0.8 3.7-2.2 1.5-1.4 2.6-3.6 1.1-2.2 1.9-5.4 0.7-3.2 1.4-7.5h3.4l-1 23.9h-55.2v-3.9h9.6v-62.2h-9.6v-3.8h54l1 19.3h-3.4q-0.7-4.8-1.8-7.9-1-3-2.9-4.7-1.9-1.7-5-2.3-3-0.6-7.7-0.6h-15.2z"/><path class="f" d="m440.8 301.6q3.8 0 6.6-0.3 2.8-0.3 5-1.1 2.1-0.7 3.7-2.2 1.5-1.4 2.6-3.6 1.1-2.3 1.9-5.6 0.8-3.2 1.4-7.7h3.4l-1.1 24.4h-53.8v-3.9h9.6v-62.2h-9.6v-3.8h28.6v3.8h-9.6v62.2z"/><path class="f" d="m179.2 402.8c-1.8 6.6-4.2 15-4.2 21 0 2.1 0.3 4 1 5.4-1.2 1.1-2.3 1.6-3.4 1.6-1.7 0-3.8-2.7-3.8-7.5 0-1.1 0.1-2.4 0.4-3.8 0.4-2 1-4.6 1.7-7.4-3 0.9-6.7 1.5-10 1.8-2.2 6.5-5 13.4-8.1 13.4-1.6 0-3.6-2-3.6-4 1.6-0.7 2.8-2.5 4.1-4.5 0.8-1.3 1.5-2.9 2.2-4.6h-0.9c-2.4 0-3.4-1.2-3.4-2.6 0-0.5 0.1-1.1 0.4-1.7 1.7 0.6 3 0.9 5.1 1 1-3.2 1.8-6.8 2.5-10.5 1.3-6.4 2.1-8.5 4.2-8.5 2.1 0 3.8 1.2 4.3 1.8 0 0.4-1.1 1.3-4.9 13.8l-0.9 3.3c3.5-0.2 7.1-0.7 9.8-1.8 0.9-3.5 1.9-7.3 2.9-10.8 1.3-4.4 2.8-6.3 5.5-6.3 1.2 0 2.4 0.4 2.9 1.4 0 0.5-1.9 2.6-3.8 9.5z"/><path fill-rule="evenodd" class="f" d="m181.2 421.9c0-6 3.1-17.6 12.1-17.6 2.4 0 4.3 0.6 5.9 1.7l0.2-1.1c0.2 0 0.4 0 0.6 0 1.8 0 4.7 1.3 4.7 3.2q0 0.3-0.1 0.6c-1.2 4.3-4.5 14.3-3.8 14.3 2.3 0 6.4-6.6 8.4-10.9 0.5-0.2 1.4 0.4 1.5 1.1-1.6 3.4-7 14.2-11.3 14.2-2.5 0-4.4-2.5-4.4-3.5 0-1.9 2.3-7.1 3.1-9.9l-0.2-0.1c-3.3 7.3-8.5 13.5-11.9 13.5-2.8 0-4.8-3.2-4.8-5.5zm17.1-12.3c-1.9-1.5-3.8-1.9-5.4-1.9-2.7 0-5.9 6.8-5.9 12.5 0 1.4 0.3 2.3 1.1 2.3 1.9 0 6.3-5.2 10.2-12.9z"/><path class="f" d="m208 422.8c0-0.2 0-0.4 0-0.6 0.3-1.9 3.2-13.9 3.9-18 2.7 0 5.3 0.7 5.3 3.2 0 2-3.6 11-3.6 14.7 0 0.5 0.1 0.9 0.3 0.9 2.5 0 6.4-6.6 8.6-11 0.7 0.1 1.3 0.4 1.4 1.1-1.4 3.5-6.9 14.2-11.1 14.2-2.7 0-4.8-1.9-4.8-4.5zm8.4-22.2c-0.9 0-1.8-0.3-2.2-1.3-0.2-0.4-0.3-0.9-0.3-1.5 0-2.2 1.6-4.9 3.6-4.9 1.6 0 2.6 0.8 3.1 1.8 0.3 0.7-2.1 5.5-3.2 5.8q-0.4 0.1-1 0.1z"/><path class="f" d="m244.4 413.4c0 0.5-6.4 13.9-10.9 13.9-3.1 0-4.9-2.5-4.9-4.3 0-2.8 2.4-9.1 3.7-14.4-1.7-0.1-3.7-0.4-5.1-0.7-0.9 2.9-2.8 6.7-4.7 9.9-0.7 0-1.1-1.2-1.1-1.9 1.5-2.5 2.9-5.6 3.9-8.5-1.5-0.6-2.4-1.8-2.4-3.5 0-2 1.8-3.7 3.9-3.7 1 0 2 0.4 2.9 1.1-0.1 1.7-0.2 2.6-0.4 3.6 0.9 0.3 4 0.5 5.5 0.6 1.4 0.1 2.9 1.9 2.9 4 0 1.7-4.1 13.5-3.2 13.5 2.9 0 7.3-8.3 8.7-11 0.7 0 1.2 0.8 1.2 1.4z"/><path class="f" d="m256.6 424.5c-0.3-0.4-0.5-1.1-0.5-1.8 0-1.7 1-3.6 3-4.2 1.8 3.7 5.1 4.6 8.1 4.6 3.7 0 7.6-1.2 7.6-4.5 0-2.8-3.1-4.5-6.3-6.5-3.6-2.2-7.5-4.8-7.5-9.9 0-6.2 6.1-10.3 12.9-10.3 4.6 0 8.2 2 8.2 4.9 0 1.9-1.5 3-3.8 3-0.5-1.4-2-3.6-6.4-3.6-4 0-6.3 1.6-6.3 4.4 0 2.5 2.7 4.3 5.8 6.3 3.8 2.5 8 5.2 8 9.7 0 6.2-6 10.7-14.3 10.7-3.4 0-7.3-1-8.5-2.8z"/><path class="f" d="m301.9 413.3c-1.1 4.3-8.1 14.1-13.9 14.1-3.6 0-4.9-3.2-4.9-5.1 0-1.8 0.5-3.5 3.4-16-1.8-0.1-3.2-0.3-3.6-0.5-0.1-1.1 0.2-2.6 1.4-2.6h2.9c0.7-3 1.5-6.6 2.4-10.9 2.6 0 4.8 0.7 4.8 3.4 0 0.2 0 0.5-0.1 0.7-0.1 0.9-0.7 3.5-1.5 6.7 2.1 0 4.3-0.1 5.7-0.3 0 0.4 0.1 0.8 0.1 1.2 0 1-0.3 1.9-1 2.2-1.1 0.2-3.3 0.3-5.6 0.3-1.2 5.6-2.6 11.8-2.6 14.7 0 1.1 0.1 1.7 0.6 1.7 2.5 0 7.5-4.2 10.8-11 0.6-0.2 1.4 0.6 1.1 1.4z"/><path fill-rule="evenodd" class="f" d="m316.7 425.5c-2.2 9-4.1 16.6-11.1 16.6-4 0-6.5-2.3-6.5-5 0-4.8 7.7-8.4 12.8-11.3l2.6-11.4-0.3-0.1c-2.2 5.7-5.5 11.6-8.8 11.6-3.1 0-5.5-2.6-5.5-5.1 0-2.4 1.4-9.3 3-16.6 0.2 0 0.5 0 0.7 0 2.3 0 4.4 1.2 4.4 3.8q0 1.1-0.6 2.6c-0.8 2.1-2 6.8-2 9.4 0 1.1 0.3 1.9 0.8 1.9 2 0 6.2-7.4 8.3-11.8 0-3.4 1-5.9 3.3-5.9 0.7 0 2.4 0.1 3.6 0.5 0.2 0.5 0.2 1.1 0.2 1.8 0 2.2-0.5 4.3-1.7 6.2l-2.3 9.5c2.9-2.6 5.7-6 7.4-9.9 0.9-0.1 1.6 0.2 1.6 0.9-2.1 5.3-5.7 9.5-9.9 12.3zm-5.5 3.4c-4.1 2.5-9 5.7-9 8.6 0 0.9 0.6 2 2 2 3.4 0 5.6-4.2 7-10.6z"/><path class="f" d="m324.2 422.8c0-2.2 3.6-19.6 6.5-32.5 2.9 0 5.1 0.3 5.1 3.2 0 3-2.9 12.4-5.3 23.8-0.5 2-0.8 3.9-0.8 4.8 0 0.5 0.1 0.9 0.3 0.9 2.5 0 6.4-6.7 8.5-11 0.5-0.1 1.4 0.6 1.3 1.3-1.2 3.3-6.8 14-11.1 14-2.9 0-4.5-2.5-4.5-4.5z"/><path class="f" d="m337.1 422.8c0-0.2 0-0.4 0.1-0.6 0.3-1.9 3.1-13.9 3.8-18 2.8 0 5.3 0.7 5.3 3.2 0 2-3.6 11-3.6 14.7 0 0.5 0.1 0.9 0.4 0.9 2.4 0 6.3-6.6 8.5-11 0.7 0.1 1.3 0.4 1.4 1.1-1.4 3.5-6.9 14.2-11.1 14.2-2.6 0-4.8-1.9-4.8-4.5zm8.4-22.2c-0.9 0-1.7-0.3-2.2-1.3-0.2-0.4-0.2-0.9-0.2-1.5 0-2.2 1.6-4.9 3.5-4.9 1.6 0 2.7 0.8 3.1 1.8 0.3 0.7-2.1 5.5-3.2 5.8q-0.4 0.1-1 0.1z"/><path class="f" d="m350.2 424c0-3.3 3.2-16.3 4.1-19.8 2 0 5 0.7 5 3.2 0 1.7-2.5 7.1-3.3 10.1l0.2 0.1c2.7-5.8 7.7-13.4 13.1-13.4 2 0 3.9 1.7 3.9 3.6 0 3.1-3.3 12.6-3.3 14.7 0 0.3 0 0.5 0.1 0.5 2.3 0 5.9-5.8 8.5-11 0.9 0.1 1.4 0.7 1.4 1.2-3.1 6.7-7.7 14.1-11 14.1-3.2 0-4.9-2.6-4.9-4.5 0-2.4 3.1-11.5 3.1-13.7 0-0.5-0.1-0.7-0.3-0.7-2.4 0-8.9 7.9-11 15-0.3 1.2-0.4 3.2-0.5 4-2.8 0-5.1-1.5-5.1-3.4z"/><path fill-rule="evenodd" class="f" d="m396 425.5c-2.3 9-4.2 16.5-11.2 16.5-3.9 0-6.5-2.2-6.5-4.9 0-4.8 7.7-8.4 12.8-11.3 1-4.3 2.4-9 2.9-12h-0.2c-3.4 7.5-8.5 13.5-11.9 13.5-2.1 0-4.8-2.2-4.8-5.8 0-5.3 2.9-17.3 12.2-17.3 2.2 0 4.2 0.7 5.9 1.8l0.1-1.3q0.4 0 0.8 0c1.8 0 4.8 1.1 4.8 2.9 0 0.2 0 0.4-0.1 0.5-1.8 6.3-3 10.3-4 14.1 2.9-2.6 5.8-6 7.5-9.9 0.9-0.1 1.5 0.2 1.5 0.9-2.1 5.3-5.8 9.5-9.8 12.3zm-5.5 3.4c-4.2 2.5-9 5.7-9 8.5 0 0.9 0.6 2 1.9 2 3.5 0 5.7-4.1 7.1-10.5zm3.7-19.3c-1.8-1.4-3.7-2-5.4-2-2.8 0-5.4 6.5-5.9 11.5q0 0.6 0 1c0 1.6 0.4 2.3 1.1 2.3 1.9 0 6.3-5.2 10.2-12.8z"/><path class="f" d="m202.2 467.2q-0.6 0.3-1.2 0.3-1.3 0-1.3-1 0-0.6 0.6-1 5.5-3.7 6.4-8.8 0.5-2-1.3-2.5-0.9-0.3-1.7-0.3-1.9 0-3.5 1.4-0.5 0.4-1 0.4-1.1 0-1.1-0.9 0-0.4 0.3-0.9 1-1.5 3.3-2.4 2.2-1 4.2-1 2.2 0 3.8 1.4 1.5 1.4 1.5 3.7 0 1-0.2 2-0.7 2.6-3 5.2-2.4 2.8-5.8 4.4z"/><path class="f" d="m221.2 458.9q0.6-0.8 1.6-2.1 0.9-1.3 2.5-3.2 0.8-1 1.9-2.1 1.1-1.2 2.5-2.6 1.8-1.9 2.9-3.1 1.1-1.2 1.5-1.6 2.7-2.8 4.3-2.8 0.9 0 0.9 0.9 0 0.9-0.8 1.7-2.4 2.2-5 5.1-2.5 2.8-5.4 6.4-1.2 1.5-2.6 3.4-1.4 2-3.1 4.5-2.7 3.9-4 6-1.4 2-1.5 2.1-0.8 1.1-1.4 2-0.6 0.8-1.1 1.3-0.3 0.3-0.7 0.3-0.8 0-1.6-0.8-0.8-0.8-0.6-1.5 0.2-0.8 1-2.1 0.6-0.8 1-1.3 0.3-0.5 0.3-0.6 0.5-0.8 1.2-1.9 0.7-1.2 1.6-2.9 1-2.6 2.2-6.6 1-3.5 1.2-4.6 0.2-3.7-1.2-4.2-1-0.5-3.4 0.7-0.5 0.3-1 0.1-0.4-0.2-0.4-0.7 0-0.6 0.8-1.1 2.5-1.6 3.8-1.6 0.6 0 1 0.1 3.1 0.6 3.1 4.7 0 1.5-1.2 6.9z"/><path class="f" d="m237.7 458.4q-1.4 1.5-2.9 1.9-0.3 0.2-0.7 0.2-0.9 0-0.9-0.8 0-1.5 1.3-2.4 0.5-0.4 1.6-2.1 0.9-1.7 1.2-2.5l0.2-0.6q0.6-2.1 2.8-2.1 0.6 0 1.1 0.4 0.9 0.5 0.9 1.3 0 1.5-2.5 4.1z"/><path class="f" d="m262.6 442.1q-1.8 6.3-10.5 14.4-0.9 0.9-2 1.7-1 0.8-2.2 1.4-0.6 0.3-1 0.3-0.5 0-0.5-0.4 0-0.4 0.6-1 5.4-4.9 10.2-13.3 1.5-2.6 1.5-4.3 0-1.1-0.7-1.1-1 0-2.7 1.9-5 5.4-9.2 16.1-0.6 1.5-0.6 2.8 0 3 2.6 3 0.7 0 1.4-0.4 0.8-0.4 2.1-1.9 0.6-0.8 1.3-0.8 0.4 0 0.7 0.2 0.3 0.2 0.6 0.5 0.2 0.4 0.4 0.8 0.1 0.4 0.1 0.8 0 0.6-0.3 1-0.7 1.1-2.7 2.2-2.4 1.4-4.5 1.4-0.8 0-1.3-0.2-4-1.1-4-5.6 0-1.9 0.8-4.2 3.4-10.7 8.5-15.8 4.8-4.7 8.4-4.7 2 0 2.9 1.3 0.8 1.4 0.1 3.9z"/><path class="f" d="m288.6 464.5q-2.1 2.2-6.3 2.2-2.9 0-6.1-2.6-0.9 0.9-2 2-1.1 1.1-2.4 2.4-1.8 1.2-2.5 0.5-0.6-0.7 0.7-2.3 0.5-0.8 1.4-2.1 0.9-1.3 2.1-3 0.4-0.4 0.6-0.7 0.3-0.3 0.5-0.5 0.8-0.7 1.9-0.7 1 0 1.5 0.7 0.8 1.1 2.4 2.1 1.6 0.9 3 0.9 1.9 0 2.6-2 0.2-0.6 0.2-1.2 0-2.3-2.1-4-2.1-1.7-5.2-1.5-1.7 0.2-1.7-1.1 0-1.4 2.2-1.6 0.3 0 0.6 0 0.3 0 0.7 0 4.1 0 6.9 2.4 2.8 2.6 2.8 5.7 0 2.5-1.8 4.4z"/><path class="f" d="m296.9 462.4q-4.8 8.3-7 8.3-1.3 0-1.3-1 0-0.3 0.3-0.7 2.3-2.9 3.5-5.6 1.2-2.2 3-5.7 1.9-3.5 4.3-8.5 0.6-1.2 1.8-1.2 0.4 0 0.7 0.2 0.4 0.1 0.7 0.4 0.3 0.3 0.5 0.6 0.2 0.3 0.2 0.7 0 0.4-0.1 0.6l-0.1 0.1h-0.1q-0.1 0.2-0.5 1z"/><path class="f" d="m326.5 448.9q-4.2 4.6-9.8 6.9 6.4 1.5 6.4 5.3 0 0.5-0.1 0.9-0.8 3.2-6.1 4.8-4 1.2-8.4 1.2-6 0-9.5-2-1.2-0.6-1.2-1.3 0-0.7 1.1-0.7 0.5 0 1.2 0.3 1 0.4 2.8 0.7 1.9 0.2 4.5 0.3 4.8 0 8-1.1 3.3-1.2 3.7-2.9 0.2-1-2.1-1.8-2.3-0.8-5.4-0.8-2 0-4 0.4-1-0.9-1-1.7 0-0.8 1.8-1.2 7.4-1.1 14.8-8.8 2.1-2.3 2.9-4.1 0.6-1.5-0.2-1.6-0.7-0.3-1.3-0.3-1.3 0-4.7 2.2-1 0.6-1.6 0.6-0.7 0-0.7-0.9 0-0.4 0.2-0.7 1-1.7 3.3-3.3 2.4-1.5 4.6-1.5 1.1 0 1.9 0.5 2.5 1.3 2.5 3.7 0 3-3.6 6.9z"/><path class="f" d="m331 458.4q-1.3 1.5-2.9 1.9-0.3 0.2-0.7 0.2-0.9 0-0.9-0.8 0-1.5 1.3-2.4 0.5-0.4 1.6-2.1 1-1.7 1.2-2.5l0.2-0.6q0.7-2.1 2.8-2.1 0.6 0 1.1 0.4 0.9 0.5 0.9 1.3 0 1.5-2.5 4.1z"/><path class="f" d="m343 458.9q0.5-0.8 1.5-2.1 1-1.3 2.5-3.2 0.8-1 2-2.1 1.1-1.2 2.4-2.6 1.8-1.9 2.9-3.1 1.1-1.2 1.6-1.6 2.6-2.8 4.3-2.8 0.9 0 0.9 0.9 0 0.9-0.9 1.7-2.3 2.2-4.9 5.1-2.6 2.8-5.5 6.4-1.2 1.5-2.6 3.4-1.4 2-3.1 4.5-2.7 3.9-4 6-1.3 2-1.4 2.1-0.8 1.1-1.4 2-0.6 0.8-1.1 1.3-0.4 0.3-0.8 0.3-0.8 0-1.6-0.8-0.7-0.8-0.5-1.5 0.1-0.8 1-2.1 0.6-0.8 0.9-1.3 0.3-0.5 0.4-0.6 0.5-0.8 1.2-1.9 0.6-1.2 1.5-2.9 1.1-2.6 2.3-6.6 0.9-3.5 1.1-4.6 0.3-3.7-1.2-4.2-0.9-0.5-3.3 0.7-0.6 0.3-1 0.1-0.5-0.2-0.5-0.7 0-0.6 0.9-1.1 2.5-1.6 3.7-1.6 0.6 0 1.1 0.1 3.1 0.6 3.1 4.7 0 1.5-1.2 6.9z"/></g></g></svg>
