<svg xmlns="http://www.w3.org/2000/svg" version="1.2" viewBox="0 0 41 41" width="41" height="41"><defs><clipPath clipPathUnits="userSpaceOnUse" id="cp1"><path d="m-974-78h1920v5924h-1920z"/></clipPath></defs><style>.a{fill:#fff}.b{fill:#000001}</style><g clip-path="url(#cp1)"><path class="a" d="m20.4 40.5c-11.2 0-20.3-9.1-20.3-20.2 0-11.2 9.1-20.3 20.3-20.3 11.2 0 20.2 9.1 20.2 20.3 0 11.1-9 20.2-20.2 20.2z"/><path class="b" d="m26.6 15.5h-4.2v-2.8c0-1 0.7-1.3 1.1-1.3h3.1v-4.6h-4.2c-4.6 0-5.6 3.4-5.6 5.6v3.1h-2.7v4.8h2.7v13.4h5.6v-13.4h3.7z"/></g></svg>
