<svg xmlns="http://www.w3.org/2000/svg" version="1.2" viewBox="0 0 308 303" width="308" height="303"><defs><clipPath clipPathUnits="userSpaceOnUse" id="cp1"><path d="m-788-5428h1920v5924h-1920z"/></clipPath><clipPath clipPathUnits="userSpaceOnUse" id="cp2"><path d="m215.81 135.86l27.76 52.12q9.52 17.95 16.36 23.85 6.6 5.67 17.08 7.36v-1.39q-11.01-1.61-17.85-7.51-6.84-5.89-16.36-23.85l-26.95-50.6q-0.02 0.01-0.04 0.02z"/></clipPath><linearGradient id="P" gradientUnits="userSpaceOnUse"/><linearGradient id="g1" x2="1" href="#P" gradientTransform="matrix(.766,0,0,1.043,-56,360.999)"><stop stop-color="#e3e4e5"/><stop offset="1" stop-color="#9a9da0"/></linearGradient><clipPath clipPathUnits="userSpaceOnUse" id="cp3"><path d="m189.79 38.88c10.26 0 20.52 1.89 29.79 6.41 6.59 3.22 12.52 8 17.25 15.54q7.09 11.33 7.09 27 0 16.75-8.08 29.08-8.08 12.32-25.04 17.41l27.77 52.12q9.51 17.96 16.35 23.85 6.84 5.9 17.85 7.51v4.95h-35.89l-45.51-84.94q-5.05 0.27-8.23 0.27-1.29 0-2.77-0.07-1.49-0.07-3.08-0.2v52.79q0 17.15 2.78 21.3 3.77 5.9 11.3 5.9h5.26v4.95h-36.74v-177.03c0-1.18 0.81-2.19 1.96-2.45 7.62-1.73 15.22-3.81 23.05-4.25q2.44-0.14 4.89-0.14zm-6.94 90.62q19.23 0 29-11.25 9.76-11.26 9.76-28.68c0-11.59-3.82-23.72-11.28-32.7-3.81-4.58-8.67-8.59-14.6-9.91-3.14-0.69-6.4-0.67-9.59-0.3-0.91 0.11-8.84 1.22-8.84 1.78-0.01 0.07-0.01 80.93-0.01 80.93q1.89 0 3.28 0.06 1.38 0.07 2.28 0.07z"/></clipPath><linearGradient id="g2" x2="1" href="#P" gradientTransform="matrix(.766,0,0,1.248,-56,361)"><stop stop-color="#caccce"/><stop offset="1" stop-color="#696b6e"/></linearGradient><clipPath clipPathUnits="userSpaceOnUse" id="cp4"><path d="m120.29 38.88q2.45 0 4.89 0.14c7.83 0.44 15.43 2.52 23.05 4.25 1.15 0.26 1.96 1.27 1.96 2.45v177.03h-36.74v-4.95h5.25q7.54 0 11.31-5.9 2.77-4.15 2.77-21.3v-52.79q-1.58 0.13-3.07 0.2-1.49 0.07-2.78 0.07-3.17 0-8.23-0.27l-45.5 84.94h-35.89v-4.95q11-1.61 17.84-7.51 6.85-5.89 16.36-23.85l27.76-52.12q-16.95-5.09-25.03-17.41-8.08-12.33-8.08-29.08 0-15.67 7.09-27c4.72-7.54 10.66-12.32 17.25-15.54 9.26-4.52 19.53-6.41 29.79-6.41zm6.94 90.62q0.89 0 2.28-0.07 1.39-0.06 3.27-0.06c0 0 0-80.86 0-80.93 0-0.56-7.93-1.67-8.85-1.78-3.18-0.37-6.44-0.39-9.59 0.3-5.93 1.32-10.78 5.33-14.59 9.91-7.46 8.98-11.28 21.11-11.28 32.7q0 17.42 9.76 28.68 9.77 11.25 29 11.25z"/></clipPath><linearGradient id="g3" x2="1" href="#P" gradientTransform="matrix(.766,0,0,1.248,-56,361)"><stop stop-color="#caccce"/><stop offset="1" stop-color="#696b6e"/></linearGradient><clipPath clipPathUnits="userSpaceOnUse" id="cp5"><path d="m-56-61.08h422.08v422.08h-422.08z"/></clipPath></defs><style>.a{fill:url(#g1)}.b{fill:url(#g2)}.c{fill:url(#g3)}.d{fill:#96999c}.e{fill:#fff}.f{fill:#1a1818}</style><g clip-path="url(#cp1)"><g clip-path="url(#cp2)"><path class="a" d="m215.8 135.8h61.2v83.4h-61.2z"/></g><g clip-path="url(#cp3)"><path class="b" d="m159.9 38.9h112.9v183.9h-112.9z"/></g><g clip-path="url(#cp4)"><path class="c" d="m37.3 38.9h112.9v183.9h-112.9z"/></g><g clip-path="url(#cp5)"><path class="d" d="m155.1 32.4c-4.8 0-8.7 0.5-8.7 1.1 0 0.6 3.9 1.1 8.7 1.1 4.8 0 8.7-0.5 8.7-1.1 0-0.6-3.9-1.1-8.7-1.1z"/><path fill-rule="evenodd" class="d" d="m172.2 13.2c0 1.2-1 2.2-2.2 2.2q-0.3 0-0.6-0.1c-0.9 1.3-3.4 5.6-5.5 17.1 0 0-0.5-0.2-1.9-0.5-1.4-0.2-3.6-0.4-7-0.4-6.7 0-8.8 0.9-8.8 0.9-2.1-11.5-4.6-15.8-5.5-17.1q-0.3 0.1-0.6 0.1c-1.2 0-2.2-1-2.2-2.2 0-1.2 1-2.2 2.2-2.2 1.2 0 2.2 1 2.2 2.2 0 0.6-0.3 1.1-0.6 1.5l5.4 6.2-0.5-11.6c-1.2 0-2.1-1-2.1-2.2 0-1.2 0.9-2.2 2.2-2.2 1.2 0 2.1 1 2.1 2.2 0 0.9-0.4 1.6-1.1 1.9l4.1 9.2 2.5-13.4c-0.8-0.3-1.4-1.1-1.4-2.1 0-1.2 0.9-2.1 2.1-2.1 1.2 0 2.2 0.9 2.2 2.1 0 1-0.6 1.8-1.5 2.1l2.6 13.4 4.1-9.2c-0.7-0.3-1.2-1-1.2-1.9 0-1.2 1-2.2 2.2-2.2 1.2 0 2.2 1 2.2 2.2 0 1.2-1 2.2-2.2 2.2l-0.4 11.6 5.4-6.2c-0.4-0.4-0.6-0.9-0.6-1.5 0-1.2 1-2.2 2.2-2.2 1.2 0 2.2 1 2.2 2.2zm-24.1 17.3q-0.2-1.5-0.5-3c-0.3-1-0.6-2-0.9-3q-0.5-1.4-1.2-2.8c-0.5-0.9-1.1-1.8-1.7-2.5 0.5 0.9 0.9 1.8 1.3 2.7q0.6 1.4 1.1 2.8 0.5 1.4 1 2.9zm3.2-0.6q0-1.6-0.2-3.1-0.2-1.5-0.5-3c-0.4-2-0.8-3.9-1.4-5.9 0.2 2.1 0.5 4 0.9 6q0.3 1.5 0.6 3zm4-6.9c-0.1-2.1-0.1-4.1-0.3-6.2q0-0.2 0-0.3c-0.2 2.1-0.3 4.3-0.3 6.5 0 2.1 0.1 4.3 0.3 6.4q0-0.1 0-0.3c0.2-2 0.2-4.1 0.3-6.1zm5.6-5c-0.6 1.9-1.1 3.9-1.4 5.9q-0.3 1.5-0.5 3-0.2 1.5-0.2 3l0.6-3q0.3-1.4 0.6-2.9c0.3-2 0.7-4 0.9-6zm5.4 1.2c-0.7 0.8-1.2 1.6-1.7 2.5q-0.7 1.4-1.2 2.9c-0.4 0.9-0.7 1.9-0.9 2.9q-0.4 1.5-0.5 3l0.9-2.9q0.4-1.4 1-2.9 0.5-1.4 1.1-2.8c0.4-0.9 0.8-1.8 1.3-2.7z"/><path fill-rule="evenodd" class="d" d="m272.8 217.8v5h-35.9l-45.5-85q-5.1 0.3-8.3 0.3-1.2 0-2.7-0.1-1.5-0.1-3.1-0.2v52.8q0 17.1 2.8 21.3 3.7 5.9 11.3 5.9h5.2v5h-36.7v-177.1c0-1.2 0.8-2.2 1.9-2.4 7.7-1.8 15.3-3.8 23.1-4.3 11.9-0.7 23.9 1 34.7 6.3 6.6 3.2 12.5 8 17.2 15.5q7.1 11.4 7.1 27 0 16.8-8.1 29.1-8 12.3-25 17.4l27.8 52.1q9.5 18 16.3 23.9 6.9 5.9 17.9 7.5zm-61-99.6q9.8-11.2 9.8-28.6c0-11.6-3.8-23.8-11.3-32.7-3.8-4.6-8.6-8.6-14.6-9.9-3.1-0.7-6.4-0.7-9.6-0.3-0.9 0.1-8.8 1.2-8.8 1.7 0 0.1 0 81 0 81q1.9 0 3.3 0 1.4 0.1 2.2 0.1 19.3 0 29-11.3z"/><path fill-rule="evenodd" class="d" d="m55.2 210.3q6.8-5.9 16.3-23.9l27.8-52.1q-17-5.1-25.1-17.4-8-12.3-8-29.1 0-15.6 7-27c4.8-7.5 10.7-12.3 17.3-15.5 10.7-5.3 22.8-7 34.7-6.3 7.8 0.5 15.4 2.5 23 4.3 1.2 0.2 2 1.2 2 2.4v177.1h-36.7v-5h5.2q7.5 0 11.3-5.9 2.8-4.2 2.8-21.3v-52.8q-1.6 0.1-3.1 0.2-1.5 0.1-2.8 0.1-3.1 0-8.2-0.3l-45.5 85h-35.9v-5q11-1.6 17.9-7.5zm72-80.8q0.9 0 2.3-0.1 1.4 0 3.3 0c0 0 0-80.9 0-81 0-0.5-8-1.6-8.9-1.7-3.2-0.4-6.4-0.4-9.6 0.3-5.9 1.3-10.7 5.3-14.5 9.9-7.5 8.9-11.3 21.1-11.3 32.7q0 17.4 9.7 28.6 9.8 11.3 29 11.3z"/><path class="e" d="m304.6 147.2c-1.7-1.8-4.1-2.9-6.6-2.9h-2.6c-4.6 0-8.5 3.4-9.1 8q-0.4 2.9-0.9 5c-0.4 1.3-0.7 2-0.8 2.3-0.3 0.1-0.7 0.2-1.4 0.3q-1.5 0.1-3.5 0.1v-29.4c4.2-0.8 7.3-4.6 7.3-9v-3c0-5-4.1-9.2-9.2-9.2h-267.7c-5.1 0-9.2 4.2-9.2 9.2v3c0 4.4 3.2 8.2 7.4 9v29.6c-4.2 0.9-7.4 4.6-7.4 9v3c0 5.1 4.1 9.2 9.2 9.2h22.3c2.7 0 5.2-1.2 6.8-3.1q1.9 1.4 4.1 2.3c2.3 0.8 5 1.3 8.2 1.3q0.7 0 1.6-0.1c0.6 0 244-0.4 244-0.4 5 0 9-3.9 9.2-8.8l0.8-18.7c0.1-2.5-0.8-4.9-2.5-6.7z"/><path fill-rule="evenodd" class="f" d="m31.4 118.6q5.9 0 9.9 0.9 4 0.9 6.5 2.5 2.5 1.6 3.5 4 1.1 2.3 1.1 5.1 0 2.4-0.8 4.6-0.7 2.1-2.2 3.9-1.5 1.8-3.8 3-2.3 1.3-5.3 2v0.1q2.5 0.6 4.2 1.8 1.6 1.1 2.6 2.8 1 1.6 1.6 3.7 0.6 2.2 1 4.7 0.4 2.6 0.8 4.8 0.3 2.1 0.9 3.7 0.6 1.6 1.6 2.4 1.1 0.9 2.9 0.9 0.3 0 0.9 0 0.6-0.1 1.3-0.2v2.8q-0.6 0.2-1.3 0.3-0.8 0.1-1.5 0.2-0.8 0-1.5 0-0.7 0.1-1.3 0.1-3.2 0-5-0.7-1.8-0.7-2.8-2.1-1-1.5-1.4-3.7-0.4-2.1-0.7-5.1-0.6-4.4-1.1-7.3-0.6-3-1.6-4.7-1-1.8-2.7-2.6-1.7-0.7-4.6-0.7h-6.9v23.4h7.7v3h-22.3v-3h7.4v-47.6h-7.4v-3zm-5.7 24.2h4.9q4 0 6.6-0.7 2.7-0.6 4.3-2 1.7-1.5 2.4-3.6 0.6-2.2 0.6-5.3 0-2.6-0.5-4.4-0.6-1.9-2.1-3-1.4-1.1-4.1-1.7-2.6-0.5-6.8-0.5h-5.3z"/><path class="f" d="m76.4 142.9h4.8q2.5 0 4.1-0.2 1.7-0.1 2.7-1 1-0.9 1.5-2.7 0.6-1.8 0.8-5.1h2.6v21.8h-2.6q-0.2-3.4-0.7-5.3-0.4-2-1.4-2.9-1-1-2.7-1.3-1.6-0.3-4.3-0.3h-4.8v23.3h9.7q2.9 0 5.1-0.2 2.2-0.2 3.8-0.8 1.6-0.6 2.8-1.7 1.1-1 2-2.7 0.8-1.7 1.4-4.2 0.6-2.4 1.1-5.7h2.6l-0.7 18.3h-42.4v-3h7.4v-47.6h-7.4v-3h41.4l0.8 14.8h-2.6q-0.5-3.7-1.4-6-0.8-2.3-2.2-3.6-1.5-1.3-3.8-1.8-2.4-0.4-5.9-0.4h-11.7z"/><path class="f" d="m126.8 121.6v22.4h4.9q2.4 0 4.1-0.2 1.6-0.1 2.7-1 1-0.9 1.5-2.8 0.5-1.8 0.7-5.2h2.6v22.2h-2.6q-0.2-3.5-0.6-5.4-0.4-2-1.4-3-1-1-2.7-1.3-1.7-0.3-4.3-0.3h-4.9v22.2h7.8v3h-22.3v-3h7.3v-47.6h-7.3v-3h41l0.8 15.5h-2.5q-0.5-3.9-1.3-6.4-0.8-2.4-2.3-3.8-1.5-1.4-3.9-1.8-2.4-0.5-6-0.5z"/><path fill-rule="evenodd" class="f" d="m168.4 169.2v3h-17.9v-3h7l19.1-51.1h2.9l18 51.1h7.3v3h-22.7v-3h7.7l-5.5-15.7h-17.4l-5.9 15.7zm7.4-39.5l-7.7 20.8h15.2l-7.3-20.8z"/><path class="f" d="m221 142.9h4.8q2.5 0 4.2-0.2 1.6-0.1 2.6-1 1.1-0.9 1.6-2.7 0.5-1.8 0.7-5.1h2.6v21.8h-2.6q-0.2-3.4-0.6-5.3-0.5-2-1.5-2.9-0.9-1-2.6-1.3-1.7-0.3-4.4-0.3h-4.8v23.3h9.8q2.9 0 5-0.2 2.2-0.2 3.8-0.8 1.6-0.6 2.8-1.7 1.2-1 2-2.7 0.9-1.7 1.5-4.2 0.5-2.4 1.1-5.7h2.5l-0.7 18.3h-42.3v-3h7.3v-47.6h-7.3v-3h41.4l0.7 14.8h-2.6q-0.5-3.7-1.3-6-0.8-2.3-2.3-3.6-1.4-1.3-3.8-1.8-2.3-0.4-5.9-0.4h-11.7z"/><path class="f" d="m280.1 169.2q2.9 0 5.1-0.2 2.1-0.2 3.8-0.8 1.6-0.6 2.8-1.7 1.2-1.1 2-2.8 0.9-1.8 1.5-4.3 0.6-2.4 1.1-5.9h2.6l-0.9 18.7h-41.2v-3h7.4v-47.6h-7.4v-3h21.9v3h-7.3v47.6z"/><path fill-rule="evenodd" class="f" d="m31.4 118.6q5.9 0 9.9 0.9 4 0.9 6.5 2.5 2.5 1.6 3.5 4 1.1 2.3 1.1 5.1 0 2.4-0.8 4.6-0.7 2.1-2.2 3.9-1.5 1.8-3.8 3-2.3 1.3-5.3 2v0.1q2.5 0.6 4.2 1.8 1.6 1.1 2.6 2.8 1 1.6 1.6 3.7 0.6 2.2 1 4.7 0.4 2.6 0.8 4.8 0.3 2.1 0.9 3.7 0.6 1.6 1.6 2.4 1.1 0.9 2.9 0.9 0.3 0 0.9 0 0.6-0.1 1.3-0.2v2.8q-0.6 0.2-1.3 0.3-0.8 0.1-1.5 0.2-0.8 0-1.5 0-0.7 0.1-1.3 0.1-3.2 0-5-0.7-1.8-0.7-2.8-2.1-1-1.5-1.4-3.7-0.4-2.1-0.7-5.1-0.6-4.4-1.1-7.3-0.6-3-1.6-4.7-1-1.8-2.7-2.6-1.7-0.7-4.6-0.7h-6.9v23.4h7.7v3h-22.3v-3h7.4v-47.6h-7.4v-3zm-5.7 24.2h4.9q4 0 6.6-0.7 2.7-0.6 4.3-2 1.7-1.5 2.4-3.6 0.6-2.2 0.6-5.3 0-2.6-0.5-4.4-0.6-1.9-2.1-3-1.4-1.1-4.1-1.7-2.6-0.5-6.8-0.5h-5.3z"/><path class="f" d="m76.4 142.9h4.8q2.5 0 4.1-0.2 1.7-0.1 2.7-1 1-0.9 1.5-2.7 0.6-1.8 0.8-5.1h2.6v21.8h-2.6q-0.2-3.4-0.7-5.3-0.4-2-1.4-2.9-1-1-2.7-1.3-1.6-0.3-4.3-0.3h-4.8v23.3h9.7q2.9 0 5.1-0.2 2.2-0.2 3.8-0.8 1.6-0.6 2.8-1.7 1.1-1 2-2.7 0.8-1.7 1.4-4.2 0.6-2.4 1.1-5.7h2.6l-0.7 18.3h-42.4v-3h7.4v-47.6h-7.4v-3h41.4l0.8 14.8h-2.6q-0.5-3.7-1.4-6-0.8-2.3-2.2-3.6-1.5-1.3-3.8-1.8-2.4-0.4-5.9-0.4h-11.7z"/><path class="f" d="m126.8 121.6v22.4h4.9q2.4 0 4.1-0.2 1.6-0.1 2.7-1 1-0.9 1.5-2.8 0.5-1.8 0.7-5.2h2.6v22.2h-2.6q-0.2-3.5-0.6-5.4-0.4-2-1.4-3-1-1-2.7-1.3-1.7-0.3-4.3-0.3h-4.9v22.2h7.8v3h-22.3v-3h7.3v-47.6h-7.3v-3h41l0.8 15.5h-2.5q-0.5-3.9-1.3-6.4-0.8-2.4-2.3-3.8-1.5-1.4-3.9-1.8-2.4-0.5-6-0.5z"/><path fill-rule="evenodd" class="f" d="m168.4 169.2v3h-17.9v-3h7l19.1-51.1h2.9l18 51.1h7.3v3h-22.7v-3h7.7l-5.5-15.7h-17.4l-5.9 15.7zm7.4-39.5l-7.7 20.8h15.2l-7.3-20.8z"/><path class="f" d="m221 142.9h4.8q2.5 0 4.2-0.2 1.6-0.1 2.6-1 1.1-0.9 1.6-2.7 0.5-1.8 0.7-5.1h2.6v21.8h-2.6q-0.2-3.4-0.6-5.3-0.5-2-1.5-2.9-0.9-1-2.6-1.3-1.7-0.3-4.4-0.3h-4.8v23.3h9.8q2.9 0 5-0.2 2.2-0.2 3.8-0.8 1.6-0.6 2.8-1.7 1.2-1 2-2.7 0.9-1.7 1.5-4.2 0.5-2.4 1.1-5.7h2.5l-0.7 18.3h-42.3v-3h7.3v-47.6h-7.3v-3h41.4l0.7 14.8h-2.6q-0.5-3.7-1.3-6-0.8-2.3-2.3-3.6-1.4-1.3-3.8-1.8-2.3-0.4-5.9-0.4h-11.7z"/><path class="f" d="m280.1 169.2q2.9 0 5.1-0.2 2.1-0.2 3.8-0.8 1.6-0.6 2.8-1.7 1.2-1.1 2-2.8 0.9-1.8 1.5-4.3 0.6-2.4 1.1-5.9h2.6l-0.9 18.7h-41.2v-3h7.4v-47.6h-7.4v-3h21.9v3h-7.3v47.6z"/><path class="f" d="m79.7 246.8c-1.4 5-3.2 11.4-3.2 16 0 1.7 0.2 3.1 0.8 4.2-1 0.8-1.8 1.2-2.6 1.2-1.3 0-3-2.1-3-5.8 0-0.8 0.1-1.8 0.3-2.9 0.4-1.5 0.8-3.4 1.4-5.7-2.3 0.8-5.2 1.2-7.7 1.4-1.7 5.1-3.9 10.3-6.2 10.3-1.3 0-2.8-1.5-2.8-3 1.2-0.6 2.2-1.9 3.2-3.5 0.6-1 1.1-2.2 1.6-3.5h-0.7c-1.7 0-2.6-0.9-2.6-2 0-0.4 0.2-0.9 0.4-1.3 1.3 0.4 2.2 0.7 3.9 0.7 0.7-2.4 1.3-5.1 1.9-8 1-4.9 1.6-6.5 3.2-6.5 1.6 0 2.9 0.9 3.3 1.4 0 0.3-0.9 1-3.7 10.6l-0.8 2.4c2.7-0.1 5.5-0.4 7.5-1.3 0.7-2.7 1.5-5.6 2.3-8.2 1-3.5 2.1-4.9 4.2-4.9 0.9 0 1.8 0.3 2.2 1.1 0 0.3-1.5 2-2.9 7.3z"/><path fill-rule="evenodd" class="f" d="m81.2 261.3c0-4.5 2.4-13.4 9.3-13.4 1.8 0 3.3 0.5 4.6 1.3l0.1-0.8q0.2-0.1 0.4 0c1.4 0 3.7 1 3.7 2.4q0 0.3-0.1 0.5c-0.9 3.2-3.5 10.9-2.9 10.9 1.7 0 4.8-5.1 6.4-8.4 0.4-0.1 1.1 0.4 1.1 0.9-1.2 2.6-5.3 10.9-8.6 10.9-1.9 0-3.4-1.9-3.4-2.7 0-1.5 1.7-5.5 2.4-7.6l-0.1-0.1c-2.6 5.6-6.6 10.4-9.2 10.4-2.1 0-3.7-2.5-3.7-4.3zm13.2-9.3c-1.5-1.2-3-1.5-4.2-1.5-2.1 0-4.5 5.2-4.5 9.6 0 1.1 0.2 1.7 0.8 1.7 1.4 0 4.9-4 7.9-9.8z"/><path class="f" d="m101.7 262.1c0-0.2 0-0.4 0.1-0.5 0.2-1.5 2.4-10.7 3-13.7 2.1-0.1 4 0.5 4 2.4 0 1.5-2.8 8.4-2.8 11.2 0 0.4 0.1 0.7 0.3 0.7 1.9 0 4.9-5 6.5-8.4 0.6 0 1.1 0.3 1.2 0.8-1.1 2.7-5.4 10.9-8.5 10.9-2.1 0-3.8-1.4-3.8-3.4zm6.5-17c-0.7 0-1.3-0.3-1.7-1-0.1-0.3-0.2-0.7-0.2-1.2 0-1.7 1.2-3.7 2.7-3.7 1.3 0 2.1 0.6 2.4 1.3 0.2 0.6-1.6 4.2-2.4 4.5q-0.4 0.1-0.8 0.1z"/><path class="f" d="m129.6 254.9c0 0.4-4.9 10.6-8.3 10.6-2.4 0-3.8-1.9-3.8-3.3 0-2.1 1.9-7 2.9-11-1.3-0.1-2.8-0.3-4-0.6-0.6 2.2-2.1 5.2-3.6 7.7-0.5 0-0.8-1-0.8-1.5 1.2-1.9 2.2-4.3 3.1-6.5-1.2-0.5-1.9-1.4-1.9-2.7 0-1.6 1.3-2.9 3-2.9 0.7 0 1.5 0.3 2.2 0.9-0.1 1.3-0.2 2-0.3 2.8 0.7 0.2 3 0.3 4.2 0.4 1.1 0.1 2.2 1.5 2.2 3.1 0 1.3-3.1 10.3-2.4 10.3 2.2 0 5.6-6.3 6.6-8.4 0.6 0 0.9 0.6 0.9 1.1z"/><path class="f" d="m139 263.4c-0.2-0.3-0.4-0.9-0.4-1.4 0-1.3 0.8-2.8 2.3-3.2 1.4 2.8 3.9 3.5 6.3 3.5 2.8 0 5.7-1 5.7-3.4 0-2.2-2.3-3.5-4.8-5-2.8-1.7-5.7-3.7-5.7-7.6 0-4.8 4.7-7.9 9.8-7.9 3.6 0 6.3 1.6 6.3 3.7 0 1.5-1.1 2.4-2.9 2.4-0.3-1.1-1.5-2.8-4.9-2.8-3 0-4.8 1.2-4.8 3.4 0 1.9 2.1 3.3 4.5 4.8 2.8 1.9 6 3.9 6 7.4 0 4.8-4.5 8.2-10.9 8.2-2.6 0-5.6-0.7-6.5-2.1z"/><path class="f" d="m173.7 254.8c-0.8 3.3-6.2 10.8-10.7 10.8-2.7 0-3.7-2.5-3.7-3.9 0-1.4 0.4-2.7 2.6-12.3-1.4 0-2.4-0.2-2.7-0.4-0.1-0.8 0.1-1.9 1-1.9h2.2c0.6-2.4 1.2-5.1 1.9-8.4 2 0 3.7 0.5 3.7 2.6q0 0.3-0.1 0.6c-0.1 0.7-0.6 2.7-1.1 5.1 1.6 0 3.2-0.1 4.3-0.2q0.1 0.4 0.1 0.9c0 0.7-0.2 1.4-0.8 1.6-0.8 0.2-2.5 0.3-4.3 0.3-0.9 4.2-2 9-2 11.2 0 0.9 0.1 1.3 0.5 1.3 1.9 0 5.8-3.1 8.3-8.4 0.4-0.1 1 0.5 0.8 1.1z"/><path fill-rule="evenodd" class="f" d="m185 264.2c-1.7 6.9-3.1 12.7-8.5 12.7-3 0-4.9-1.8-4.9-3.9 0-3.6 5.9-6.4 9.8-8.6l1.9-8.8h-0.1c-1.8 4.4-4.3 8.9-6.8 8.9-2.4 0-4.2-2.1-4.2-3.9 0-1.9 1-7.2 2.3-12.7 0.1 0 0.3-0.1 0.5-0.1 1.7 0 3.4 0.9 3.4 3q-0.1 0.8-0.5 1.9c-0.6 1.6-1.5 5.2-1.5 7.3 0 0.8 0.2 1.4 0.6 1.4 1.5 0 4.7-5.7 6.4-9.1 0-2.6 0.8-4.4 2.5-4.4 0.5 0 1.8 0 2.7 0.3 0.2 0.4 0.2 0.9 0.2 1.4 0 1.7-0.4 3.2-1.3 4.7l-1.8 7.3c2.2-2 4.4-4.6 5.7-7.6 0.7 0 1.3 0.2 1.3 0.7-1.7 4.1-4.4 7.3-7.7 9.5zm-4.2 2.5c-3.1 2-6.8 4.4-6.8 6.6 0 0.7 0.4 1.5 1.5 1.5 2.6 0 4.3-3.1 5.3-8.1z"/><path class="f" d="m190.8 262c0-1.6 2.8-15 5-24.8 2.2 0 3.9 0.2 3.9 2.5 0 2.2-2.2 9.4-4.1 18.1-0.3 1.6-0.6 3-0.6 3.7 0 0.4 0.1 0.7 0.3 0.7 1.8 0 4.9-5.1 6.5-8.4 0.3-0.1 1 0.4 1 1-1 2.5-5.3 10.7-8.6 10.7-2.2 0-3.4-1.9-3.4-3.5z"/><path class="f" d="m200.7 262.1c0-0.2 0-0.4 0-0.5 0.2-1.5 2.4-10.7 3-13.7 2.1-0.1 4 0.5 4 2.4 0 1.5-2.7 8.4-2.7 11.2 0 0.4 0 0.7 0.2 0.7 1.9 0 4.9-5 6.6-8.4 0.6 0 1 0.3 1.1 0.8-1.1 2.7-5.3 10.9-8.5 10.9-2.1 0-3.7-1.4-3.7-3.4zm6.4-17c-0.7 0-1.3-0.3-1.7-1-0.1-0.3-0.2-0.7-0.2-1.2 0-1.7 1.3-3.7 2.7-3.7 1.3 0 2.1 0.6 2.4 1.3 0.3 0.6-1.6 4.2-2.4 4.5q-0.3 0.1-0.8 0.1z"/><path class="f" d="m210.7 263c0-2.5 2.4-12.5 3.2-15.1 1.5 0 3.7 0.5 3.7 2.3 0 1.4-1.8 5.5-2.4 7.8l0.1 0.1c2-4.4 5.9-10.3 10-10.3 1.6 0 3 1.3 3 2.8 0 2.3-2.5 9.6-2.5 11.3 0 0.1 0 0.3 0.1 0.3 1.7 0 4.5-4.4 6.5-8.4 0.7 0 1 0.5 1.1 0.9-2.4 5.1-6 10.8-8.5 10.8-2.4 0-3.7-1.9-3.7-3.4 0-1.9 2.4-8.9 2.4-10.5q0-0.6-0.3-0.6c-1.8 0-6.8 6.1-8.4 11.5-0.2 0.9-0.3 2.5-0.4 3.1-2.1 0-3.9-1.1-3.9-2.6z"/><path fill-rule="evenodd" class="f" d="m245.8 264.2c-1.7 6.8-3.2 12.6-8.6 12.6-3 0-4.9-1.7-4.9-3.8 0-3.7 5.8-6.4 9.8-8.6 0.7-3.4 1.8-7 2.2-9.2h-0.2c-2.6 5.7-6.5 10.3-9.1 10.3-1.6 0-3.7-1.7-3.7-4.5 0-4 2.2-13.1 9.4-13.1 1.6 0 3.2 0.5 4.5 1.3l0.1-1q0.3 0 0.5 0c1.4 0 3.7 0.8 3.7 2.2 0 0.2 0 0.3 0 0.4-1.4 4.9-2.3 7.9-3.1 10.8 2.3-2 4.4-4.6 5.8-7.6 0.7 0 1.1 0.2 1.1 0.7-1.6 4.1-4.4 7.3-7.5 9.5zm-4.3 2.6c-3.1 1.9-6.8 4.3-6.8 6.5 0 0.7 0.4 1.5 1.5 1.5 2.6 0 4.3-3.2 5.3-8zm2.9-14.8c-1.3-1.1-2.8-1.6-4.1-1.6-2.2 0-4.2 5-4.5 8.8q-0.1 0.5-0.1 0.8c0 1.2 0.4 1.8 0.9 1.8 1.5 0 4.8-4 7.8-9.8z"/><path class="f" d="m97.4 296.1q-0.5 0.2-1 0.2-1 0-1-0.8 0-0.4 0.5-0.8 4.2-2.8 4.9-6.6 0.3-1.6-1-2-0.7-0.2-1.3-0.2-1.5 0-2.7 1.1-0.4 0.3-0.8 0.3-0.8 0-0.8-0.7 0-0.3 0.2-0.7 0.8-1.1 2.6-1.9 1.6-0.7 3.1-0.7 1.8 0 3 1.1 1.1 1 1.1 2.8 0 0.7-0.2 1.5-0.5 2-2.3 4-1.8 2.2-4.3 3.4z"/><path class="f" d="m111.9 289.7q0.4-0.6 1.2-1.6 0.7-1 1.9-2.4 0.6-0.8 1.5-1.7 0.8-0.9 1.9-2 1.4-1.4 2.2-2.3 0.9-0.9 1.2-1.2 2-2.2 3.3-2.2 0.7 0 0.7 0.7 0 0.7-0.7 1.3-1.8 1.7-3.8 3.9-1.9 2.2-4.1 4.9-1 1.2-2 2.7-1.1 1.5-2.4 3.4-2.1 3-3.1 4.5-1 1.6-1.1 1.7-0.6 0.9-1.1 1.5-0.4 0.6-0.8 1-0.3 0.2-0.6 0.2-0.6 0-1.2-0.6-0.6-0.6-0.4-1.2 0.1-0.6 0.8-1.5 0.4-0.7 0.7-1 0.2-0.4 0.2-0.5 0.4-0.6 0.9-1.5 0.5-0.9 1.2-2.2 0.8-2 1.8-5 0.7-2.7 0.8-3.5 0.2-2.9-0.9-3.3-0.7-0.3-2.5 0.6-0.5 0.2-0.8 0-0.4-0.1-0.4-0.5 0-0.4 0.7-0.8 1.9-1.3 2.9-1.3 0.4 0 0.8 0.1 2.4 0.5 2.4 3.6 0 1.2-1 5.3z"/><path class="f" d="m124.5 289.4q-1 1.1-2.2 1.4-0.3 0.1-0.6 0.1-0.7 0-0.7-0.6 0-1.1 1-1.8 0.5-0.3 1.3-1.6 0.7-1.3 0.9-1.9l0.2-0.4q0.5-1.7 2.1-1.7 0.4 0 0.9 0.3 0.7 0.4 0.7 1 0 1.1-2 3.2z"/><path class="f" d="m143.6 276.9q-1.3 4.8-8 11-0.8 0.7-1.6 1.3-0.8 0.6-1.7 1.1-0.4 0.2-0.7 0.2-0.4 0-0.4-0.3 0-0.4 0.5-0.7 4.1-3.8 7.8-10.3 1.1-2 1.1-3.3 0-0.8-0.5-0.8-0.8 0-2.1 1.4-3.8 4.2-7.1 12.4-0.4 1.2-0.4 2.1 0 2.3 2 2.3 0.5 0 1.1-0.3 0.6-0.3 1.6-1.4 0.4-0.6 1-0.6 0.3 0 0.5 0.1 0.3 0.2 0.5 0.4 0.1 0.3 0.3 0.6 0.1 0.3 0.1 0.6 0 0.5-0.3 0.8-0.6 0.8-2.1 1.7-1.8 1-3.4 1-0.6 0-1-0.1-3-0.9-3-4.3 0-1.4 0.5-3.2 2.6-8.2 6.6-12.1 3.6-3.7 6.4-3.7 1.5 0 2.2 1.1 0.6 1.1 0.1 3z"/><path class="f" d="m163.5 294q-1.6 1.7-4.8 1.7-2.2 0-4.7-2-0.6 0.7-1.5 1.5-0.9 0.9-1.9 1.9-1.3 0.9-1.9 0.4-0.5-0.6 0.5-1.8 0.4-0.6 1.1-1.6 0.7-1 1.7-2.3 0.2-0.3 0.4-0.6 0.2-0.2 0.4-0.3 0.6-0.5 1.4-0.5 0.8 0 1.2 0.5 0.6 0.8 1.8 1.6 1.3 0.7 2.3 0.7 1.5 0 2-1.5 0.2-0.5 0.2-1 0-1.7-1.7-3.1-1.6-1.3-3.9-1.1-1.3 0.1-1.3-0.8 0-1.1 1.7-1.2 0.2-0.1 0.4-0.1 0.3 0 0.5 0 3.2 0 5.4 1.9 2.1 2 2.1 4.3 0 1.9-1.4 3.4z"/><path class="f" d="m169.9 292.4q-3.7 6.4-5.4 6.4-1 0-1-0.8 0-0.2 0.2-0.5 1.8-2.2 2.7-4.3 0.9-1.7 2.3-4.4 1.4-2.7 3.3-6.5 0.5-0.9 1.4-0.9 0.3 0 0.6 0.1 0.3 0.1 0.5 0.3 0.2 0.2 0.4 0.5 0.1 0.3 0.1 0.5 0 0.3-0.1 0.5v0.1h-0.1q-0.1 0.1-0.4 0.7z"/><path class="f" d="m192.6 282q-3.3 3.6-7.5 5.4 4.9 1.1 4.9 4 0 0.4-0.1 0.7-0.7 2.4-4.7 3.7-3.1 0.9-6.4 0.9-4.6 0-7.3-1.5-0.9-0.5-0.9-1 0-0.5 0.8-0.5 0.4 0 0.9 0.2 0.8 0.3 2.2 0.5 1.4 0.2 3.4 0.2 3.7 0.1 6.2-0.8 2.5-1 2.8-2.2 0.1-0.8-1.6-1.4-1.8-0.6-4.1-0.6-1.6 0-3.2 0.3-0.7-0.7-0.7-1.3 0-0.7 1.4-0.9 5.6-0.9 11.3-6.8 1.6-1.7 2.2-3.1 0.5-1.1-0.1-1.3-0.5-0.2-1-0.2-1 0-3.6 1.7-0.8 0.5-1.2 0.5-0.5 0-0.5-0.7 0-0.3 0.1-0.6 0.7-1.3 2.5-2.5 1.9-1.1 3.6-1.1 0.8 0 1.4 0.3 1.9 1 1.9 2.9 0 2.2-2.7 5.2z"/><path class="f" d="m196 289.4q-1 1.1-2.2 1.4-0.3 0.1-0.6 0.1-0.7 0-0.7-0.6 0-1.1 1-1.8 0.5-0.3 1.3-1.6 0.7-1.3 0.9-1.9l0.1-0.4q0.5-1.7 2.2-1.7 0.4 0 0.9 0.3 0.7 0.4 0.7 1 0 1.1-2 3.2z"/><path class="f" d="m205.2 289.7q0.4-0.6 1.1-1.6 0.8-1 2-2.4 0.6-0.8 1.5-1.7 0.8-0.9 1.8-2 1.4-1.4 2.3-2.3 0.8-0.9 1.1-1.2 2.1-2.2 3.4-2.2 0.7 0 0.7 0.7 0 0.7-0.7 1.3-1.8 1.7-3.8 3.9-2 2.2-4.2 4.9-0.9 1.2-2 2.7-1.1 1.5-2.4 3.4-2 3-3 4.5-1 1.6-1.1 1.7-0.6 0.9-1.1 1.5-0.5 0.6-0.9 1-0.2 0.2-0.5 0.2-0.6 0-1.2-0.6-0.6-0.6-0.5-1.2 0.2-0.6 0.8-1.5 0.5-0.7 0.7-1 0.3-0.4 0.3-0.5 0.4-0.6 0.9-1.5 0.5-0.9 1.2-2.2 0.8-2 1.7-5 0.8-2.7 0.9-3.5 0.2-2.9-0.9-3.3-0.7-0.3-2.6 0.6-0.4 0.2-0.8 0-0.3-0.1-0.3-0.5 0-0.4 0.7-0.8 1.9-1.3 2.9-1.3 0.4 0 0.8 0.1 2.3 0.5 2.3 3.6 0 1.2-0.9 5.3z"/></g></g></svg>
