<svg xmlns="http://www.w3.org/2000/svg" version="1.2" viewBox="0 0 42 42" width="42" height="42"><defs><clipPath clipPathUnits="userSpaceOnUse" id="cp1"><path d="m-888-77h1920v5924h-1920z"/></clipPath></defs><style>.a{fill:#000}.b{fill:#fff}</style><g clip-path="url(#cp1)"><path class="a" d="m21 41.2c-11.1 0-20.1-9-20.1-20.1 0-11.1 9-20.1 20.1-20.1 11.1 0 20.1 9 20.1 20.1 0 11.1-9 20.1-20.1 20.1z"/><path fill-rule="evenodd" class="b" d="m33.4 15.9v10.5c0 3.9-3.2 7.2-7.1 7.2h-10.6c-3.9 0-7.1-3.3-7.1-7.2v-10.5c0-4 3.2-7.2 7.1-7.2h10.6c3.9 0 7.1 3.2 7.1 7.2zm-2.3-0.1c0-2.6-2.1-4.8-4.7-4.8h-10.8c-2.6 0-4.8 2.2-4.8 4.8v10.8c0 2.6 2.2 4.7 4.8 4.7h10.8c2.6 0 4.7-2.1 4.7-4.7z"/><path fill-rule="evenodd" class="b" d="m27.5 21.2c0 3.5-2.9 6.4-6.5 6.4-3.6 0-6.5-2.9-6.5-6.4 0-3.6 2.9-6.5 6.5-6.5 3.6 0 6.5 2.9 6.5 6.5zm-2.3 0c0-2.3-1.9-4.2-4.2-4.2-2.3 0-4.2 1.9-4.2 4.2 0 2.3 1.9 4.2 4.2 4.2 2.3 0 4.2-1.9 4.2-4.2z"/><path class="b" d="m27.7 13c-0.9 0-1.5 0.6-1.5 1.5 0 0.8 0.6 1.5 1.5 1.5 0.8 0 1.5-0.7 1.5-1.5 0-0.9-0.7-1.5-1.5-1.5z"/></g></svg>
