<svg version="1.2" xmlns="http://www.w3.org/2000/svg" viewBox="0 0 276 95" width="276" height="95"><defs><clipPath clipPathUnits="userSpaceOnUse" id="cp1"><path d="m-390-51h1920v5924h-1920z"/></clipPath><clipPath clipPathUnits="userSpaceOnUse" id="cp2"><path d="m0 1.35h275.84v92.72h-275.84z"/></clipPath></defs><style>.a{fill:#fff}</style><g clip-path="url(#cp1)"><g clip-path="url(#cp2)"><path fill-rule="evenodd" class="a" d="m19.5 1.9q5.6 0 9.4 0.8 3.9 0.9 6.2 2.4 2.4 1.6 3.4 3.8 1.1 2.2 1.1 4.9 0 2.3-0.8 4.4-0.7 2.1-2.1 3.8-1.5 1.7-3.7 2.9-2.1 1.2-5.1 1.8v0.2q2.5 0.5 4 1.6 1.6 1.1 2.6 2.7 1 1.6 1.5 3.6 0.6 2.1 1 4.5 0.4 2.5 0.7 4.6 0.4 2 0.9 3.5 0.6 1.5 1.6 2.4 0.9 0.8 2.7 0.8 0.3 0 0.9 0 0.6-0.1 1.3-0.2v2.8q-0.6 0.1-1.3 0.2-0.8 0.1-1.5 0.2-0.7 0-1.4 0-0.7 0-1.2 0-3.1 0-4.8-0.6-1.8-0.7-2.7-2-0.9-1.4-1.3-3.5-0.4-2.1-0.8-4.9-0.5-4.2-1-7-0.6-2.9-1.5-4.6-1-1.7-2.6-2.4-1.6-0.7-4.4-0.7h-6.7v22.5h7.5v2.8h-21.4v-2.8h7.1v-45.7h-7.1v-2.8zm-5.5 23.1h4.7q3.8 0 6.4-0.6 2.5-0.6 4.1-2 1.6-1.3 2.2-3.4 0.7-2.2 0.7-5.1 0-2.5-0.6-4.2-0.5-1.8-1.9-2.9-1.4-1.1-4-1.6-2.5-0.5-6.5-0.5h-5.1z"/><path class="a" d="m62.5 25.1h4.7q2.3 0 3.9-0.1 1.6-0.2 2.6-1 1-0.9 1.4-2.6 0.5-1.8 0.8-4.9h2.5v20.9h-2.5q-0.2-3.2-0.6-5.1-0.5-1.9-1.4-2.8-1-1-2.6-1.2-1.6-0.3-4.1-0.3h-4.7v22.4h9.4q2.8 0 4.8-0.2 2.1-0.3 3.7-0.8 1.5-0.6 2.6-1.6 1.2-1 2-2.7 0.8-1.6 1.3-3.9 0.6-2.3 1.1-5.5h2.5l-0.7 17.5h-40.6v-2.8h7.1v-45.7h-7.1v-2.8h39.7l0.7 14.1h-2.5q-0.5-3.5-1.3-5.7-0.8-2.2-2.2-3.5-1.4-1.2-3.6-1.7-2.2-0.4-5.7-0.4h-11.2z"/><path class="a" d="m110.9 4.7v21.5h4.6q2.4 0 4-0.2 1.6-0.1 2.5-1 1-0.8 1.5-2.6 0.5-1.8 0.7-5.1h2.5v21.3h-2.5q-0.2-3.3-0.6-5.2-0.4-1.9-1.4-2.8-0.9-1-2.5-1.3-1.6-0.2-4.2-0.2h-4.6v21.3h7.4v2.8h-21.4v-2.8h7.1v-45.7h-7.1v-2.8h39.4l0.8 14.8h-2.5q-0.5-3.8-1.3-6.1-0.7-2.4-2.2-3.7-1.4-1.3-3.7-1.7-2.2-0.5-5.7-0.5z"/><path fill-rule="evenodd" class="a" d="m150.7 50.4v2.8h-17.2v-2.8h6.7l18.4-49.1h2.8l17.2 49.1h7v2.8h-21.7v-2.8h7.3l-5.3-15.1h-16.6l-5.6 15.1zm7.1-37.9l-7.5 19.9h14.6l-7-19.9z"/><path class="a" d="m201.2 25.1h4.6q2.3 0 3.9-0.1 1.6-0.2 2.6-1 1-0.9 1.5-2.6 0.5-1.8 0.7-4.9h2.5v20.9h-2.5q-0.2-3.2-0.6-5.1-0.5-1.9-1.4-2.8-1-1-2.6-1.2-1.6-0.3-4.1-0.3h-4.6v22.4h9.3q2.8 0 4.8-0.2 2.1-0.3 3.7-0.8 1.5-0.6 2.7-1.6 1.1-1 1.9-2.7 0.8-1.6 1.4-3.9 0.5-2.3 1-5.5h2.5l-0.7 17.5h-40.6v-2.8h7.1v-45.7h-7.1v-2.8h39.7l0.7 14.1h-2.5q-0.5-3.5-1.3-5.7-0.8-2.2-2.1-3.5-1.4-1.2-3.7-1.7-2.2-0.4-5.7-0.4h-11.1z"/><path class="a" d="m257.8 50.4q2.8 0 4.8-0.2 2.1-0.3 3.7-0.8 1.6-0.6 2.7-1.7 1.1-1 1.9-2.7 0.8-1.6 1.4-4 0.6-2.4 1.1-5.7h2.4l-0.7 17.9h-39.6v-2.8h7.1v-45.7h-7.1v-2.8h21.1v2.8h-7.1v45.7z"/><path fill-rule="evenodd" class="a" d="m19.5 1.9q5.6 0 9.4 0.8 3.9 0.9 6.2 2.4 2.4 1.6 3.4 3.8 1.1 2.2 1.1 4.9 0 2.3-0.8 4.4-0.7 2.1-2.1 3.8-1.5 1.7-3.7 2.9-2.1 1.2-5.1 1.8v0.2q2.5 0.5 4 1.6 1.6 1.1 2.6 2.7 1 1.6 1.5 3.6 0.6 2.1 1 4.5 0.4 2.5 0.7 4.6 0.4 2 0.9 3.5 0.6 1.5 1.6 2.4 0.9 0.8 2.7 0.8 0.3 0 0.9 0 0.6-0.1 1.3-0.2v2.8q-0.6 0.1-1.3 0.2-0.8 0.1-1.5 0.2-0.7 0-1.4 0-0.7 0-1.2 0-3.1 0-4.8-0.6-1.8-0.7-2.7-2-0.9-1.4-1.3-3.5-0.4-2.1-0.8-4.9-0.5-4.2-1-7-0.6-2.9-1.5-4.6-1-1.7-2.6-2.4-1.6-0.7-4.4-0.7h-6.7v22.5h7.5v2.8h-21.4v-2.8h7.1v-45.7h-7.1v-2.8zm-5.5 23.1h4.7q3.8 0 6.4-0.6 2.5-0.6 4.1-2 1.6-1.3 2.2-3.4 0.7-2.2 0.7-5.1 0-2.5-0.6-4.2-0.5-1.8-1.9-2.9-1.4-1.1-4-1.6-2.5-0.5-6.5-0.5h-5.1z"/><path class="a" d="m62.5 25.1h4.7q2.3 0 3.9-0.1 1.6-0.2 2.6-1 1-0.9 1.4-2.6 0.5-1.8 0.8-4.9h2.5v20.9h-2.5q-0.2-3.2-0.6-5.1-0.5-1.9-1.4-2.8-1-1-2.6-1.2-1.6-0.3-4.1-0.3h-4.7v22.4h9.4q2.8 0 4.8-0.2 2.1-0.3 3.7-0.8 1.5-0.6 2.6-1.6 1.2-1 2-2.7 0.8-1.6 1.3-3.9 0.6-2.3 1.1-5.5h2.5l-0.7 17.5h-40.6v-2.8h7.1v-45.7h-7.1v-2.8h39.7l0.7 14.1h-2.5q-0.5-3.5-1.3-5.7-0.8-2.2-2.2-3.5-1.4-1.2-3.6-1.7-2.2-0.4-5.7-0.4h-11.2z"/><path class="a" d="m110.9 4.7v21.5h4.6q2.4 0 4-0.2 1.6-0.1 2.5-1 1-0.8 1.5-2.6 0.5-1.8 0.7-5.1h2.5v21.3h-2.5q-0.2-3.3-0.6-5.2-0.4-1.9-1.4-2.8-0.9-1-2.5-1.3-1.6-0.2-4.2-0.2h-4.6v21.3h7.4v2.8h-21.4v-2.8h7.1v-45.7h-7.1v-2.8h39.4l0.8 14.8h-2.5q-0.5-3.8-1.3-6.1-0.7-2.4-2.2-3.7-1.4-1.3-3.7-1.7-2.2-0.5-5.7-0.5z"/><path fill-rule="evenodd" class="a" d="m150.7 49.4v2.8h-17.2v-2.8h6.7l18.4-49.1h2.8l17.2 49.1h7v2.8h-21.7v-2.8h7.3l-5.3-15.1h-16.6l-5.6 15.1zm7.1-37.9l-7.5 19.9h14.6l-7-19.9z"/><path class="a" d="m201.2 25.1h4.6q2.3 0 3.9-0.1 1.6-0.2 2.6-1 1-0.9 1.5-2.6 0.5-1.8 0.7-4.9h2.5v20.9h-2.5q-0.2-3.2-0.6-5.1-0.5-1.9-1.4-2.8-1-1-2.6-1.2-1.6-0.3-4.1-0.3h-4.6v22.4h9.3q2.8 0 4.8-0.2 2.1-0.3 3.7-0.8 1.5-0.6 2.7-1.6 1.1-1 1.9-2.7 0.8-1.6 1.4-3.9 0.5-2.3 1-5.5h2.5l-0.7 17.5h-40.6v-2.8h7.1v-45.7h-7.1v-2.8h39.7l0.7 14.1h-2.5q-0.5-3.5-1.3-5.7-0.8-2.2-2.1-3.5-1.4-1.2-3.7-1.7-2.2-0.4-5.7-0.4h-11.1z"/><path class="a" d="m257.8 50.4q2.8 0 4.8-0.2 2.1-0.3 3.7-0.8 1.6-0.6 2.7-1.7 1.1-1 1.9-2.7 0.8-1.6 1.4-4 0.6-2.4 1.1-5.7h2.4l-0.7 17.9h-39.6v-2.8h7.1v-45.7h-7.1v-2.8h21.1v2.8h-7.1v45.7z"/><path class="a" d="m83.3 88.3q-0.4 0.2-0.9 0.2-1 0-1-0.7 0-0.5 0.5-0.8 4-2.7 4.7-6.4 0.3-1.5-1-1.9-0.6-0.2-1.2-0.2-1.4 0-2.6 1.1-0.3 0.3-0.7 0.3-0.8 0-0.8-0.7 0-0.3 0.2-0.7 0.8-1 2.5-1.8 1.6-0.6 3-0.6 1.7 0 2.8 1 1.1 1 1.1 2.7 0 0.7-0.2 1.4-0.5 1.9-2.2 3.9-1.7 2-4.2 3.2z"/><path class="a" d="m97.3 82.2q0.4-0.6 1.1-1.5 0.7-1 1.8-2.4 0.6-0.7 1.5-1.6 0.8-0.8 1.8-1.9 1.3-1.3 2.1-2.2 0.8-0.9 1.1-1.2 2-2.1 3.2-2.1 0.7 0 0.7 0.7 0 0.7-0.7 1.2-1.7 1.7-3.6 3.8-1.9 2.1-4 4.7-0.9 1.1-1.9 2.5-1.1 1.5-2.3 3.3-2 2.9-2.9 4.4-1 1.5-1.1 1.6-0.6 0.8-1 1.4-0.5 0.6-0.8 1-0.3 0.2-0.6 0.2-0.6 0-1.2-0.6-0.5-0.6-0.4-1.1 0.2-0.6 0.8-1.5 0.4-0.6 0.7-1 0.2-0.4 0.2-0.5 0.4-0.5 0.9-1.4 0.5-0.8 1.1-2.1 0.8-1.9 1.7-4.8 0.7-2.6 0.8-3.4 0.2-2.7-0.8-3.1-0.7-0.3-2.5 0.6-0.4 0.1-0.7 0-0.4-0.1-0.4-0.5 0-0.4 0.7-0.8 1.8-1.2 2.7-1.2 0.5 0 0.8 0.1 2.3 0.5 2.3 3.5 0 1-0.9 5z"/><path class="a" d="m109.3 81.9q-0.9 1.1-2 1.4-0.3 0.1-0.6 0.1-0.7 0-0.7-0.6 0-1.1 1-1.8 0.4-0.3 1.2-1.5 0.7-1.2 0.9-1.9l0.1-0.4q0.5-1.6 2-1.6 0.5 0 0.9 0.3 0.7 0.4 0.7 1 0 1.1-1.9 3.1z"/><path class="a" d="m127.7 69.9q-1.3 4.6-7.7 10.6-0.8 0.6-1.5 1.2-0.8 0.5-1.6 1-0.5 0.2-0.8 0.2-0.4 0-0.3-0.2 0-0.4 0.4-0.8 3.9-3.6 7.5-9.8 1.1-1.9 1.1-3.1 0-0.8-0.5-0.8-0.8 0-2 1.4-3.7 3.9-6.8 11.8-0.4 1.1-0.4 2 0 2.2 1.9 2.2 0.5 0 1-0.2 0.6-0.3 1.6-1.4 0.4-0.6 0.9-0.6 0.3 0 0.5 0.1 0.3 0.2 0.5 0.4 0.2 0.3 0.3 0.6 0.1 0.3 0.1 0.6 0 0.4-0.3 0.7-0.5 0.8-2 1.7-1.7 0.9-3.2 0.9-0.6 0-1-0.1-2.9-0.8-2.9-4.1 0-1.4 0.5-3.1 2.5-7.8 6.3-11.6 3.5-3.5 6.2-3.5 1.4 0 2 1 0.7 1.1 0.2 2.9z"/><path class="a" d="m146.7 86.3q-1.5 1.6-4.6 1.6-2.1 0-4.5-1.9-0.6 0.7-1.4 1.5-0.8 0.8-1.8 1.7-1.3 0.9-1.8 0.4-0.5-0.5 0.4-1.7 0.4-0.6 1.1-1.5 0.7-1 1.6-2.2 0.2-0.3 0.4-0.6 0.2-0.2 0.3-0.3 0.6-0.5 1.4-0.5 0.7 0 1.1 0.5 0.7 0.8 1.8 1.5 1.2 0.7 2.2 0.7 1.4 0 1.9-1.4 0.2-0.5 0.2-1 0-1.6-1.6-2.9-1.5-1.2-3.8-1.1-1.3 0.1-1.3-0.8 0-1 1.7-1.1 0.2-0.1 0.4-0.1 0.3 0 0.5 0 3.1 0 5.1 1.8 2.1 1.9 2.1 4.2 0 1.8-1.4 3.2z"/><path class="a" d="m152.9 84.7q-3.6 6.2-5.2 6.2-1 0-1-0.8 0-0.2 0.2-0.5 1.7-2.1 2.6-4.1 0.9-1.6 2.2-4.2 1.4-2.6 3.2-6.2 0.4-0.9 1.3-0.9 0.3 0 0.5 0.1 0.3 0.1 0.5 0.3 0.3 0.2 0.4 0.5 0.1 0.2 0.1 0.5 0 0.3-0.1 0.4v0.1q-0.2 0.2-0.5 0.7z"/><path class="a" d="m174.6 74.8q-3.1 3.4-7.2 5.2 4.7 1 4.7 3.8 0 0.4-0.1 0.7-0.6 2.3-4.5 3.5-2.9 0.9-6.1 0.9-4.4 0-7-1.4-0.9-0.6-0.9-1 0-0.5 0.8-0.5 0.4 0 0.9 0.2 0.7 0.3 2.1 0.5 1.3 0.2 3.3 0.2 3.5 0 5.8-0.8 2.4-0.9 2.7-2.1 0.1-0.8-1.5-1.4-1.7-0.6-4-0.6-1.5 0-2.9 0.4-0.7-0.7-0.7-1.3 0-0.6 1.3-0.9 5.4-0.8 10.8-6.4 1.6-1.7 2.2-3 0.4-1.1-0.2-1.3-0.5-0.1-1-0.1-0.9 0-3.4 1.6-0.7 0.4-1.1 0.4-0.5 0-0.5-0.6 0-0.4 0.1-0.6 0.7-1.2 2.4-2.4 1.8-1.1 3.4-1.1 0.8 0 1.4 0.4 1.8 0.9 1.8 2.7 0 2.2-2.6 5z"/><path class="a" d="m177.8 81.9q-0.9 1.1-2 1.4-0.3 0.1-0.6 0.1-0.7 0-0.7-0.6 0-1.1 1-1.8 0.4-0.3 1.2-1.5 0.7-1.2 0.9-1.9l0.1-0.4q0.5-1.6 2-1.6 0.5 0 0.9 0.3 0.7 0.4 0.7 1 0 1.1-1.9 3.1z"/><path class="a" d="m186.7 82.2q0.4-0.6 1.1-1.5 0.7-1 1.8-2.4 0.6-0.7 1.4-1.6 0.9-0.8 1.8-1.9 1.4-1.3 2.2-2.2 0.8-0.9 1.1-1.2 2-2.1 3.2-2.1 0.7 0 0.7 0.7 0 0.7-0.7 1.2-1.7 1.7-3.6 3.8-1.9 2.1-4 4.7-0.9 1.1-1.9 2.5-1.1 1.5-2.3 3.3-2 2.9-2.9 4.4-1 1.5-1.1 1.6-0.6 0.8-1 1.4-0.5 0.6-0.9 1-0.2 0.2-0.5 0.2-0.6 0-1.2-0.6-0.5-0.6-0.4-1.1 0.2-0.6 0.8-1.5 0.4-0.6 0.7-1 0.2-0.4 0.2-0.5 0.4-0.5 0.9-1.4 0.5-0.8 1.1-2.1 0.8-1.9 1.7-4.8 0.7-2.6 0.8-3.4 0.2-2.7-0.9-3.1-0.6-0.3-2.4 0.6-0.4 0.1-0.8 0-0.3-0.1-0.3-0.5 0-0.4 0.6-0.8 1.9-1.2 2.8-1.2 0.4 0 0.8 0.1 2.3 0.5 2.3 3.5 0 1-0.9 5z"/><path class="a" d="m0 78.6h66.5v2.2h-66.5z"/><path class="a" d="m209.3 78.6h66.5v2.2h-66.5z"/></g></g></svg>
