<svg xmlns="http://www.w3.org/2000/svg" version="1.2" viewBox="0 0 41 41" width="41" height="41"><defs><clipPath clipPathUnits="userSpaceOnUse" id="cp1"><path d="m-1059-78h1920v5924h-1920z"/></clipPath></defs><style>.a{fill:#fff}.b{fill:#000001}</style><g clip-path="url(#cp1)"><path class="a" d="m20.8 40.4c-11.1 0-20.2-9.1-20.2-20.2 0-11.2 9.1-20.2 20.2-20.2 11.2 0 20.2 9 20.2 20.2 0 11.1-9 20.2-20.2 20.2z"/><path fill-rule="evenodd" class="b" d="m34.2 20.2c0 7.4-6 13.4-13.4 13.4-2.7 0-5.2-0.8-7.4-2.2l-5.1 1.6 1.7-5c-1.7-2.2-2.6-4.9-2.6-7.8 0-7.4 6-13.4 13.4-13.4 7.4 0 13.4 6 13.4 13.4zm-5.4 3.7c-0.1-0.2-0.3-0.3-0.7-0.5-0.4-0.2-2.3-1.1-2.7-1.3-0.3-0.1-0.7-0.1-0.9 0.3-0.4 0.5-0.8 1.1-1.1 1.4-0.2 0.3-0.6 0.3-0.9 0.2-0.5-0.2-1.7-0.6-3.2-2-1.1-1-1.9-2.3-2.1-2.7-0.3-0.4-0.1-0.6 0.1-0.8 0.2-0.3 0.4-0.4 0.6-0.7 0.2-0.2 0.3-0.3 0.4-0.6 0.2-0.2 0.1-0.5 0-0.7-0.1-0.2-0.9-2.1-1.2-2.9-0.3-0.6-0.5-0.7-0.9-0.7q-0.2 0-0.4 0c-0.5 0-1.1 0.2-1.4 0.5-0.4 0.4-1.4 1.3-1.4 3.3 0 1.9 1.4 3.7 1.6 4 0.2 0.3 2.7 4.3 6.7 5.9 3.1 1.3 4 1.2 4.7 1 1-0.2 2.3-1 2.6-1.9 0.3-0.9 0.3-1.7 0.2-1.8z"/></g></svg>
