<svg xmlns="http://www.w3.org/2000/svg" version="1.2" viewBox="0 0 1920 881" width="1920" height="881" style="&#10;"><defs><clipPath clipPathUnits="userSpaceOnUse" id="cp1"><path d="m0-1051h1920v5924h-1920z"/></clipPath><filter x="-50%" y="-50%" width="200%" height="200%" id="f1"><feDropShadow dx="-1.0409497792752501e-15" dy="-17" stdDeviation="7.5" flood-color="#000000" flood-opacity=".2"/></filter><filter x="-50%" y="-50%" width="200%" height="200%" id="f2"><feDropShadow dx="-4.286263797015736e-16" dy="-7" stdDeviation="7.5" flood-color="#000000" flood-opacity=".2"/></filter></defs><style>.a{opacity:.3;filter:url(#f1);fill:#fff}.b{opacity:.4;filter:url(#f2);fill:#fff}.c{fill:#fff}</style><g clip-path="url(#cp1)"><path class="a" d="m0 128.2c0 0 342.2-195.1 859.4-16.3 517.2 178.9 1059.6-39 1059.6-39v768.9h-1919z"/><path class="b" d="m0 54.5c0 0 284.9-67.6 735.8 75 451 142.7 1183.2-75 1183.2-75v780.4h-1919z"/><path class="c" d="m1920 51.9c0 0-175.8 0.9-714.4 117.9-538.5 117.1-1205.6-99.1-1205.6-99.1v809.4l1920-1.6z"/></g></svg>
