<svg xmlns="http://www.w3.org/2000/svg" version="1.2" viewBox="0 0 1920 684" width="1920" height="684"><defs><clipPath clipPathUnits="userSpaceOnUse" id="cp1"><path d="m0-1405h1920v5924h-1920z"/></clipPath><filter x="-50%" y="-50%" width="200%" height="200%" id="f1"><feDropShadow dx="-1.0409497792752501e-15" dy="-17" stdDeviation="7.5" flood-color="#000000" flood-opacity=".2"/></filter><filter x="-50%" y="-50%" width="200%" height="200%" id="f2"><feDropShadow dx="-4.286263797015736e-16" dy="-7" stdDeviation="7.5" flood-color="#000000" flood-opacity=".2"/></filter></defs><style>.a{opacity:.3;filter:url(#f1);fill:#fff}.b{opacity:.4;filter:url(#f2);fill:#fff}.c{fill:#fff}</style><g clip-path="url(#cp1)"><path class="a" d="m1920 601.7c0 0-342.2 153.9-859.4 12.8-517.2-141-1059.6 30.8-1059.6 30.8v-606.4h1919z"/><path class="b" d="m1920 658.4c0 0-284.9 53.2-735.8-59-451-112.1-1183.2 59-1183.2 59v-613.6h1919z"/><path class="c" d="m0 658.7c0 0 175.8-0.8 714.4-93.8 538.5-93 1205.6 78.8 1205.6 78.8v-643.1l-1920 1.3z"/></g></svg>
