<svg xmlns="http://www.w3.org/2000/svg" version="1.2" viewBox="0 0 1920 905" width="1920" height="905"><defs><clipPath clipPathUnits="userSpaceOnUse" id="cp1"><path d="m0-5019h1920v5924h-1920z"/></clipPath><filter x="-50%" y="-50%" width="200%" height="200%" id="f1"><feDropShadow dx="-1.0409497792752501e-15" dy="-17" stdDeviation="7.5" flood-color="#000000" flood-opacity=".2"/></filter><filter x="-50%" y="-50%" width="200%" height="200%" id="f2"><feDropShadow dx="-4.286263797015736e-16" dy="-7" stdDeviation="7.5" flood-color="#000000" flood-opacity=".2"/></filter></defs><style>.a{opacity:.3;filter:url(#f1);fill:#fff}.b{opacity:.4;filter:url(#f2);fill:#fff}.c{fill:#fff}</style><g clip-path="url(#cp1)"><path class="a" d="m0 128.3c0 0 342.2-195.2 859.4-16.3 517.2 178.9 1059.6-39.1 1059.6-39.1v768.9h-1919z"/><path class="b" d="m0 55.6c0 0 284.9-67.7 735.8 75 451 142.6 1183.2-75 1183.2-75v780.4h-1919z"/><path class="c" d="m1920 50.9c0 0-175.8 0.9-714.4 117.9-538.5 117.1-1205.6-99-1205.6-99v809.3l886.8-0.7 1033.2-0.9z"/><path class="c" d="m0 842h1920v70h-1920z"/></g></svg>
