<svg xmlns="http://www.w3.org/2000/svg" version="1.2" viewBox="0 0 1920 851" width="1920" height="851"><defs><clipPath clipPathUnits="userSpaceOnUse" id="cp1"><path d="m0-3506h1920v5924h-1920z"/></clipPath><filter x="-50%" y="-50%" width="200%" height="200%" id="f1"><feDropShadow dx="-1.0409497792752501e-15" dy="-17" stdDeviation="7.5" flood-color="#fff" flood-opacity=".2"/></filter><filter x="-50%" y="-50%" width="200%" height="200%" id="f2"><feDropShadow dx="-4.286263797015736e-16" dy="-7" stdDeviation="7.5" flood-color="#fff" flood-opacity=".2"/></filter></defs><style>.a{opacity:.2;filter:url(#f1)}.b{opacity:.4;filter:url(#f2)}</style><g clip-path="url(#cp1)"><path class="a" d="m1768 771.1c0 0-338.3 154.7-849.5 12.9-511.3-141.8-1047.5 31-1047.5 31v-609.7h1897z"/><path class="b" d="m1920 822.8c0 0-284.9 67.7-735.8-75-451-142.7-1183.2 75-1183.2 75v-780.4h1919z"/><path d="m0 828.5c0 0 175.8-0.9 714.4-118 538.5-117.1 1205.6 99.1 1205.6 99.1v-809.3l-1920 1.6z"/></g></svg>
