<svg xmlns="http://www.w3.org/2000/svg" version="1.2" viewBox="0 0 750 854" width="750" height="854"><defs><clipPath clipPathUnits="userSpaceOnUse" id="cp1"><path d="m0-4488h750v7856h-750z"/></clipPath><filter x="-50%" y="-50%" width="200%" height="200%" id="f1"><feDropShadow dx="-1.0409497792752501e-15" dy="-17" stdDeviation="7.5" flood-color="#000000" flood-opacity=".2"/></filter><filter x="-50%" y="-50%" width="200%" height="200%" id="f2"><feDropShadow dx="-4.286263797015736e-16" dy="-7" stdDeviation="7.5" flood-color="#000000" flood-opacity=".2"/></filter></defs><style>.a{opacity:.2;filter:url(#f1)}.b{opacity:.4;filter:url(#f2)}</style><g clip-path="url(#cp1)"><path class="a" d="m705.6 771.6c0 0-147.4 154.7-370.2 12.9-222.8-141.8-456.6 31-456.6 31v-609.7h826.8z"/><path class="b" d="m771.9 825.3c0 0-124.2 67.6-320.7-75-196.6-142.7-515.7 75-515.7 75v-780.4h836.4z"/><path d="m-64.9 829c0 0 76.6-0.9 311.3-118 234.7-117.1 525.5 99.1 525.5 99.1v-809.3l-836.8 1.6z"/></g></svg>
