<svg xmlns="http://www.w3.org/2000/svg" version="1.2" viewBox="0 0 750 868" width="750" height="868"><defs><clipPath clipPathUnits="userSpaceOnUse" id="cp1"><path d="m0-3885h750v7856h-750z"/></clipPath><filter x="-50%" y="-50%" width="200%" height="200%" id="f1"><feDropShadow dx="-1.0409497792752501e-15" dy="-17" stdDeviation="7.5" flood-color="#fff" flood-opacity=".2"/></filter><filter x="-50%" y="-50%" width="200%" height="200%" id="f2"><feDropShadow dx="-4.286263797015736e-16" dy="-7" stdDeviation="7.5" flood-color="#fff" flood-opacity=".2"/></filter></defs><style>.a{opacity:.2;filter:url(#f1)}.b{opacity:.4;filter:url(#f2)}</style><g clip-path="url(#cp1)"><path class="a" d="m-64.9 129.4c0 0 164.2-191.5 412.3-16 248.2 175.5 508.5-38.3 508.5-38.3v754.2h-920.8z"/><path class="b" d="m-64.9 43c0 0 124.1-67.6 320.7 75 196.5 142.7 515.7-75 515.7-75v780.4h-836.4z"/><path d="m771.9 39.4c0 0-76.6 0.9-311.4 117.9-234.7 117.1-525.4-99.1-525.4-99.1v809.4l836.8-1.6z"/></g></svg>
