<svg xmlns="http://www.w3.org/2000/svg" version="1.2" viewBox="0 0 750 881" width="750" height="881"><defs><clipPath clipPathUnits="userSpaceOnUse" id="cp1"><path d="m0-6581h750v7856h-750z"/></clipPath><filter x="-50%" y="-50%" width="200%" height="200%" id="f1"><feDropShadow dx="-1.0409497792752501e-15" dy="-17" stdDeviation="7.5" flood-color="#000000" flood-opacity=".2"/></filter><filter x="-50%" y="-50%" width="200%" height="200%" id="f2"><feDropShadow dx="-4.286263797015736e-16" dy="-7" stdDeviation="7.5" flood-color="#000000" flood-opacity=".2"/></filter></defs><style>.a{opacity:.3;filter:url(#f1);fill:#fff}.b{opacity:.4;filter:url(#f2);fill:#fff}.c{fill:#fff}</style><g clip-path="url(#cp1)"><path class="a" d="m0 128.3c0 0 133.6-195.2 335.4-16.3 201.9 178.9 413.6-39.1 413.6-39.1v768.9h-749z"/><path class="b" d="m0 55.6c0 0 111.2-67.7 287.2 75 176 142.6 461.8-75 461.8-75v780.4h-749z"/><path class="c" d="m750 51.9c0 0-68.7 0.9-279 117.9-210.4 117.1-471-99-471-99v809.3l346.4-0.7 403.6-0.9z"/></g></svg>
